<?xml version="1.0" encoding="UTF-8"?>
<svg xmlns="http://www.w3.org/2000/svg" width="104" height="109" viewBox="0 0 104 109" fill="none">
  <g clip-path="url(#clip0_420_5439)">
    <path fill-rule="evenodd" clip-rule="evenodd" d="M50.0233 2.41872C39.8376 3.03458 30.3458 6.48075 22.3136 12.4794C18.2395 15.5219 14.113 19.7275 11.2074 23.7985C3.59826 34.4593 0.340796 47.3822 1.99033 60.365C3.21802 70.027 7.10034 78.9609 13.4288 86.6863C14.8911 88.4716 18.2513 91.8451 20.0532 93.3375C31.2738 102.63 45.3727 106.705 59.6415 104.778C70.4788 103.316 80.5387 98.4065 88.393 90.7474C92.6719 86.575 95.8941 82.1569 98.566 76.7981C100.798 72.3219 102.21 68.169 103.118 63.4102C104.519 56.0636 104.247 47.8259 102.373 40.8864L102.189 40.2038L97.4998 40.1765C93.0648 40.1506 92.813 40.1592 92.8645 40.3341C94.2125 44.9143 94.6583 47.2151 94.9355 51.0192C95.0662 52.815 95.0101 56.2535 94.8206 58.0547C93.7901 67.8656 89.5718 76.7791 82.6639 83.7433C70.6967 95.8073 52.7852 99.5033 37.0594 93.1536C24.4767 88.0728 14.9819 77.0825 11.7718 63.8826C10.9028 60.3096 10.6168 57.8126 10.6168 53.8019C10.6168 50.5891 10.7266 49.1939 11.195 46.4525C11.6758 43.6398 12.783 39.8773 13.8994 37.2637C21.429 19.6347 39.5202 9.26257 58.3872 11.7576C60.8009 12.0768 62.6738 12.5075 66.203 13.5553C66.3771 13.607 66.3857 13.3544 66.3599 8.90473L66.3323 4.19941L65.7052 4.01082C64.2763 3.58145 60.8868 2.95068 58.4916 2.66853C56.2271 2.40171 52.2471 2.28432 50.0233 2.41872ZM83.2169 11.1687V16.103L78.3294 16.1302L73.4419 16.1575L73.4143 19.7015L73.3867 23.2454H78.3018H83.2169V28.1807V33.1159H86.719H90.2216V28.1807V23.2454H95.1349H100.049V19.6752V16.105H95.1349H90.2216V11.1698V6.2345H86.719H83.2169V11.1687ZM61.6279 35.9568C55.9341 36.5486 52.262 39.1812 51.4147 43.279C50.7147 46.6628 52.1933 49.9823 55.3291 52.067C55.6597 52.2868 55.9301 52.5016 55.9301 52.5447C55.9301 52.5874 55.6746 52.7269 55.3626 52.854C53.3179 53.6874 51.0696 55.9396 50.1355 58.0906C49.7525 58.9721 49.4513 60.4804 49.4504 61.52C49.4481 64.4498 50.6799 66.925 53.0321 68.7185C55.6366 70.7041 59.1423 71.6751 63.7188 71.6783C68.4281 71.6811 71.9628 70.666 74.6365 68.5423C76.0324 67.4337 76.9946 66.0494 77.5833 64.3027C77.8849 63.4061 77.9238 63.1504 77.9654 61.7825C78.0047 60.4899 77.9785 60.1202 77.7922 59.3359C77.1302 56.5487 75.1425 54.128 72.4742 52.8586C72.1726 52.7151 71.9257 52.5734 71.9262 52.5434C71.9262 52.5139 72.1491 52.3481 72.4213 52.175C73.1348 51.7222 74.2897 50.5959 74.7735 49.8797C75.7751 48.3987 76.1459 47.1447 76.1449 45.2441C76.144 43.5932 75.9709 42.7886 75.3297 41.4639C73.6607 38.0156 69.7431 36.0497 64.2492 35.9037C63.3249 35.8791 62.1456 35.903 61.6279 35.9568ZM27.5182 39.81L27.5457 43.354L30.7605 43.3817L33.9753 43.4095V57.3739V71.3382H38.4185H42.8618V53.8019V36.2661H35.1763H27.4906L27.5182 39.81ZM65.2571 41.8781C67.2534 42.2357 68.3748 43.2591 68.6972 45.0177C68.8496 45.8485 68.7166 46.9276 68.3807 47.5857C67.7635 48.7956 66.3468 49.5263 64.3464 49.6676C61.8544 49.8438 59.9377 49.0831 59.1152 47.5916C58.8199 47.0557 58.805 46.9698 58.805 45.769C58.805 44.4355 58.8941 44.1265 59.5221 43.2728C60.4129 42.0632 62.9053 41.457 65.2571 41.8781ZM66.1234 56.3679C67.0567 56.6191 67.9855 57.1105 68.5294 57.6414C69.7752 58.8577 70.065 61.0467 69.2109 62.7889C68.699 63.834 67.6717 64.5802 66.1673 64.9998C65.2037 65.2687 62.3274 65.2732 61.3665 65.0071C60.2632 64.7014 59.6203 64.3503 58.9741 63.7018C58.1064 62.8303 57.8744 62.1926 57.8744 60.6798C57.8744 59.7315 57.916 59.419 58.1082 58.9317C58.658 57.5356 60.0408 56.5773 62.0186 56.2221C62.8271 56.0768 65.3769 56.1676 66.1234 56.3679Z" fill="#656565"></path>
  </g>
  <defs>
    <clipPath id="clip0_420_5439">
      <rect width="104" height="109" fill="white"></rect>
    </clipPath>
  </defs>
</svg>
