<?xml version="1.0" encoding="UTF-8"?>
<svg version="1.1" xmlns="http://www.w3.org/2000/svg" width="512" height="512">
<path d="M0 0 C0.85360107 -0.00974854 1.70720215 -0.01949707 2.58666992 -0.02954102 C21.40098424 -0.20014597 39.48500013 -0.01501218 57.91015625 4.23828125 C58.75433105 4.42551758 59.59850586 4.61275391 60.46826172 4.80566406 C92.23804069 11.98969141 121.81287064 26.49437095 146.91015625 47.23828125 C147.4913623 47.71797363 148.07256836 48.19766602 148.67138672 48.69189453 C159.88866291 58.01017123 169.85115993 67.76867066 178.91015625 79.23828125 C179.69132812 80.19089844 180.4725 81.14351563 181.27734375 82.125 C196.04826136 100.55325344 207.15454653 121.98316821 214.91015625 144.23828125 C216.15104004 144.24762695 217.39192383 144.25697266 218.67041016 144.26660156 C223.28893491 144.30657408 227.90679863 144.37235332 232.52490234 144.44580078 C234.5209095 144.47396828 236.51702731 144.49520377 238.51318359 144.50927734 C241.38826989 144.53076528 244.26203154 144.57744551 247.13671875 144.62890625 C248.02444977 144.63013489 248.91218079 144.63136353 249.82681274 144.63262939 C255.33566774 144.76188295 258.54072539 145.57196751 262.91015625 149.23828125 C267.63525522 154.60190711 268.41468927 157.95761903 268.2890625 165.04296875 C267.08722461 175.17805526 257.59248287 183.90280231 251.4765625 191.66796875 C248.26722817 195.75821239 245.14084809 199.8980646 242.09765625 204.11328125 C241.47648926 204.95971191 241.47648926 204.95971191 240.84277344 205.82324219 C237.90314692 209.69048474 237.90314692 209.69048474 236.91015625 214.23828125 C239.8408648 220.49827472 244.24379772 225.7466264 248.47265625 231.17578125 C249.90297278 233.04800544 251.33134399 234.92171731 252.7578125 236.796875 C254.73602755 239.39586693 256.71665174 241.99109183 258.72998047 244.56298828 C269.5200597 258.3892506 269.5200597 258.3892506 268.54296875 268.5234375 C267.14841478 274.50624618 263.84870657 277.81928488 258.91015625 281.23828125 C256.22688231 282.1327059 254.56865886 282.38409812 251.8059082 282.44360352 C250.98528397 282.46354874 250.16465973 282.48349396 249.31916809 282.50404358 C247.99715645 282.52911232 247.99715645 282.52911232 246.6484375 282.5546875 C245.7426445 282.5754686 244.8368515 282.59624969 243.90361023 282.61766052 C241.01003609 282.68304683 238.11637118 282.74199029 235.22265625 282.80078125 C233.26105832 282.84397685 231.29946957 282.88759148 229.33789062 282.93164062 C224.52873886 283.03871707 219.71949579 283.14001539 214.91015625 283.23828125 C214.66483154 283.86057617 214.41950684 284.48287109 214.16674805 285.12402344 C203.46402264 312.05999825 190.12125822 335.49343158 170.91015625 357.23828125 C177.1833462 369.39502202 184.0727122 381.16712304 190.99414062 392.96337891 C195.52603032 400.70939934 200.00560412 408.48541978 204.46484375 416.2734375 C206.54409251 419.89866213 208.66056388 423.49058304 210.85546875 427.046875 C215.23064113 434.22140223 219.0005695 440.55725958 216.91015625 449.23828125 C215.15867752 454.10958147 212.20503659 457.37502769 207.91015625 460.23828125 C197.89058541 463.5781382 185.51684375 460.62715182 175.22265625 459.23828125 C160.68243098 456.01463811 160.68243098 456.01463811 147.31445312 458.40991211 C145.52280169 460.74260988 144.44899317 463.10675141 143.2734375 465.8046875 C142.78238525 466.92214355 142.29133301 468.03959961 141.78540039 469.19091797 C141.26969482 470.38217285 140.75398926 471.57342773 140.22265625 472.80078125 C139.6850014 474.02527063 139.14650364 475.24939025 138.60717773 476.47314453 C136.21117769 481.91841474 133.84589512 487.37616981 131.51953125 492.8515625 C131.16850342 493.6674585 130.81747559 494.48335449 130.45581055 495.32397461 C129.8216132 496.80072368 129.19730397 498.2817775 128.58520508 499.76782227 C126.36995252 504.91197001 123.64373778 508.4268718 118.96484375 511.52734375 C113.37121678 513.46278122 106.87394016 513.1110741 101.53515625 510.73828125 C95.0267811 504.53982872 90.78134272 496.82465439 86.42056274 489.0413208 C85.02874793 486.55766975 83.62427537 484.081256 82.22041321 481.60440063 C81.49986137 480.33305659 80.77988145 479.06138823 80.06047058 477.78939819 C76.66279439 471.7858088 73.20349174 465.81902723 69.72265625 459.86328125 C69.1611084 458.90083496 68.59956055 457.93838867 68.02099609 456.94677734 C65.08612365 451.92608843 62.1288711 446.91956424 59.1484375 441.92578125 C58.54217529 440.90790527 57.93591309 439.8900293 57.3112793 438.84130859 C56.1513932 436.89652638 54.98765918 434.95403252 53.81958008 433.01416016 C53.30548584 432.15226074 52.7913916 431.29036133 52.26171875 430.40234375 C51.80619629 429.6438916 51.35067383 428.88543945 50.88134766 428.10400391 C49.91015625 426.23828125 49.91015625 426.23828125 49.91015625 424.23828125 C48.22792969 424.563125 48.22792969 424.563125 46.51171875 424.89453125 C22.74246495 429.07597552 -2.40640025 428.81163586 -26.08984375 424.23828125 C-26.3537793 424.94428467 -26.61771484 425.65028809 -26.88964844 426.37768555 C-28.16057783 429.40687183 -29.65747168 432.1590832 -31.29296875 435.0078125 C-31.93637207 436.13155273 -32.57977539 437.25529297 -33.24267578 438.41308594 C-33.94159354 439.62573072 -34.64065309 440.83829379 -35.33984375 442.05078125 C-36.06381982 443.3114198 -36.78761296 444.57216341 -37.51123047 445.83300781 C-43.17039506 455.68331049 -48.87833632 465.50518289 -54.625 475.3046875 C-57.07462288 479.48592827 -59.49396822 483.68326181 -61.8984375 487.890625 C-62.52669434 488.98407227 -63.15495117 490.07751953 -63.80224609 491.20410156 C-65.00290821 493.29488241 -66.19761057 495.38910132 -67.38525391 497.48730469 C-74.58614928 509.98366717 -74.58614928 509.98366717 -81.08984375 512.23828125 C-83.859375 512.57421875 -83.859375 512.57421875 -86.90234375 512.61328125 C-87.89878906 512.64164063 -88.89523438 512.67 -89.921875 512.69921875 C-94.00091591 512.10572081 -96.88264988 510.82745602 -100.08984375 508.23828125 C-102.06640625 505.40234375 -102.06640625 505.40234375 -103.71484375 501.86328125 C-104.02695801 501.20424805 -104.33907227 500.54521484 -104.66064453 499.86621094 C-108.87337465 490.82280439 -112.77061732 481.61871205 -116.69775391 472.44775391 C-117.11054596 471.48390274 -117.11054596 471.48390274 -117.53167725 470.50057983 C-118.28803206 468.73180087 -119.04227484 466.9621192 -119.79638672 465.19238281 C-121.52770775 460.40523429 -121.52770775 460.40523429 -125.08984375 457.23828125 C-134.54743486 456.36028602 -144.20240517 458.26688037 -153.55932617 459.52929688 C-180.55273519 463.14111267 -180.55273519 463.14111267 -187.08984375 458.23828125 C-191.2886638 454.02795759 -193.23609899 450.32267598 -193.58203125 444.37109375 C-193.50039787 436.84350652 -189.99772215 431.42843646 -186.21484375 425.11328125 C-185.51615215 423.90883593 -184.81955745 422.70317194 -184.125 421.49633789 C-182.13978308 418.06093998 -180.11673351 414.64924717 -178.08984375 411.23828125 C-177.18968632 409.69892112 -176.29097241 408.15871474 -175.39453125 406.6171875 C-173.8620376 403.99023744 -172.31674363 401.37148246 -170.76171875 398.7578125 C-167.57793479 393.39296214 -164.45635782 387.99205085 -161.33691406 382.58963013 C-160.37282072 380.92037829 -159.40714141 379.25204275 -158.44140625 377.58374023 C-154.55793453 370.8542828 -150.77596067 364.07784908 -147.08984375 357.23828125 C-147.65711182 356.64611816 -148.22437988 356.05395508 -148.80883789 355.44384766 C-166.53401302 336.74068775 -186.31213299 308.12964735 -190.08984375 282.23828125 C-191.94331421 282.26970215 -191.94331421 282.26970215 -193.83422852 282.30175781 C-198.43925285 282.37441578 -203.04422697 282.42017465 -207.6496582 282.45800781 C-209.63900283 282.47806462 -211.62828893 282.5053171 -213.61743164 282.54003906 C-216.48468506 282.58881896 -219.35115586 282.61130952 -222.21875 282.62890625 C-223.10131973 282.64955139 -223.98388947 282.67019653 -224.89320374 282.69146729 C-230.82480396 282.69359984 -234.22180356 281.67417593 -239.08984375 278.23828125 C-243.96030103 272.85514426 -244.77014334 269.04790416 -244.66015625 261.84375 C-243.71652143 255.8781682 -240.3945038 251.84898478 -236.70898438 247.26855469 C-234.79980037 244.87458994 -232.95229659 242.43847561 -231.10546875 239.99609375 C-228.33931887 236.3383749 -225.55844754 232.69297692 -222.76171875 229.05859375 C-221.8190918 227.81577637 -221.8190918 227.81577637 -220.85742188 226.54785156 C-219.75913071 225.11279156 -218.64125841 223.69223703 -217.49414062 222.29589844 C-215.2810816 219.5023394 -214.11363783 217.35431082 -213.39453125 213.84765625 C-214.38732094 208.69407382 -216.99766678 205.54698439 -220.21484375 201.48828125 C-221.49386778 199.81539325 -222.77250171 198.14220694 -224.05078125 196.46875 C-224.71432617 195.61200684 -225.37787109 194.75526367 -226.06152344 193.87255859 C-229.38185958 189.56027802 -232.60967685 185.18075499 -235.83984375 180.80078125 C-236.73340576 179.60340332 -236.73340576 179.60340332 -237.64501953 178.38183594 C-238.19915527 177.63450195 -238.75329102 176.88716797 -239.32421875 176.1171875 C-240.05463379 175.13600952 -240.05463379 175.13600952 -240.79980469 174.13500977 C-244.72547097 168.36315107 -244.83507606 163.10177883 -244.08984375 156.23828125 C-241.67049099 151.22036441 -238.09067065 147.7386947 -233.08984375 145.23828125 C-231.73232079 145.12123161 -230.36958487 145.06150936 -229.00732422 145.03295898 C-228.1666037 145.01301376 -227.32588318 144.99306854 -226.45968628 144.97251892 C-225.09712204 144.94745018 -225.09712204 144.94745018 -223.70703125 144.921875 C-222.77762726 144.9010939 -221.84822327 144.88031281 -220.89065552 144.85890198 C-217.91546165 144.79340479 -214.94017798 144.73452073 -211.96484375 144.67578125 C-209.95051147 144.63259619 -207.93618834 144.58898191 -205.921875 144.54492188 C-200.97795712 144.43772322 -196.03394872 144.33645624 -191.08984375 144.23828125 C-190.87632767 143.67509689 -190.66281158 143.11191254 -190.44282532 142.53166199 C-183.5704727 124.44830351 -175.50384471 106.94688619 -164.08984375 91.23828125 C-163.41824219 90.2946875 -162.74664062 89.35109375 -162.0546875 88.37890625 C-150.53095668 72.56776196 -137.43748764 58.38419593 -122.08984375 46.23828125 C-121.18363281 45.4803125 -120.27742188 44.72234375 -119.34375 43.94140625 C-86.82029748 17.50800261 -42.06850065 0.39919635 0 0 Z " fill="#E35026" transform="translate(244.08984375,-0.23828125)"/>
<path d="M0 0 C0.85360107 -0.00974854 1.70720215 -0.01949707 2.58666992 -0.02954102 C21.40098424 -0.20014597 39.48500013 -0.01501218 57.91015625 4.23828125 C58.75433105 4.42551758 59.59850586 4.61275391 60.46826172 4.80566406 C92.23804069 11.98969141 121.81287064 26.49437095 146.91015625 47.23828125 C147.4913623 47.71797363 148.07256836 48.19766602 148.67138672 48.69189453 C159.88866291 58.01017123 169.85115993 67.76867066 178.91015625 79.23828125 C179.69132812 80.19089844 180.4725 81.14351563 181.27734375 82.125 C191.38909602 94.7404609 199.41416849 108.68789104 206.41015625 123.23828125 C206.8071875 124.06134766 207.20421875 124.88441406 207.61328125 125.73242188 C210.61936992 132.17183443 212.62597316 138.38573199 214.91015625 145.23828125 C80.93015625 145.23828125 -53.04984375 145.23828125 -191.08984375 145.23828125 C-183.95306152 126.20686197 -183.95306152 126.20686197 -180.40234375 118.80078125 C-179.98154541 117.92172119 -179.56074707 117.04266113 -179.12719727 116.13696289 C-174.81914247 107.35671428 -169.70668701 99.23221859 -164.08984375 91.23828125 C-163.35121094 90.18511719 -162.61257812 89.13195312 -161.8515625 88.046875 C-150.41888804 72.35046089 -137.3120438 58.28492139 -122.08984375 46.23828125 C-121.18363281 45.4803125 -120.27742188 44.72234375 -119.34375 43.94140625 C-86.82029748 17.50800261 -42.06850065 0.39919635 0 0 Z " fill="#FD950D" transform="translate(244.08984375,-0.23828125)"/>
<path d="M0 0 C0.55719727 0.39493652 1.11439453 0.78987305 1.68847656 1.19677734 C24.58186103 17.69716771 42.55298104 39.24420735 54 65 C-43.02 65 -140.04 65 -240 65 C-218.91692557 22.83385114 -185.97440123 -7.01498064 -141.24609375 -22.28125 C-132.6361305 -24.86717753 -123.85938446 -26.52812343 -115 -28 C-113.93136719 -28.185625 -112.86273438 -28.37125 -111.76171875 -28.5625 C-72.82075296 -33.09145968 -31.9194379 -22.69806183 0 0 Z " fill="#FDDE2F" transform="translate(349,80)"/>
<path d="M0 0 C97.02 0 194.04 0 294 0 C288.51252867 10.97494265 283.38274463 20.45141423 276 30 C275.28070313 30.94359375 274.56140625 31.8871875 273.8203125 32.859375 C252.37294388 60.04175428 223.1132948 78.42886942 190 88 C189.20577637 88.24411621 188.41155273 88.48823242 187.59326172 88.73974609 C174.15426736 92.76640113 160.99127761 93.4766304 147.0625 93.5 C146.23714752 93.50449158 145.41179504 93.50898315 144.56143188 93.51361084 C133.36897726 93.53837876 122.91411916 92.46282237 112 90 C111.09677002 89.80680176 110.19354004 89.61360352 109.26293945 89.41455078 C86.97228666 84.47960738 65.94943445 74.06995242 48 60 C46.68322266 58.98873047 46.68322266 58.98873047 45.33984375 57.95703125 C25.09794083 41.9673842 11.51765645 23.0353129 0 0 Z " fill="#FDDE2F" transform="translate(109,282)"/>
<path d="M0 0 C2.87663428 1.273889 3.53019459 2.87238145 5.00683594 5.62866211 C5.55331787 6.62953857 6.0997998 7.63041504 6.6628418 8.66162109 C7.24300049 9.75289307 7.82315918 10.84416504 8.42089844 11.96850586 C9.67805809 14.27426032 10.93722302 16.57892241 12.19824219 18.88256836 C12.51867996 19.47136276 12.83911774 20.06015717 13.16926575 20.66679382 C16.3271631 26.45989076 19.63892114 32.15675072 22.98339844 37.84350586 C24.13345913 39.80555726 25.28319442 41.76779943 26.43261719 43.73022461 C27.01446777 44.72328613 27.59631836 45.71634766 28.19580078 46.73950195 C31.24289699 51.95470884 34.26866053 57.18218693 37.28909302 62.41287231 C38.27473617 64.11936655 39.26174289 65.82507297 40.2487793 67.53076172 C41.14608765 69.08549194 41.14608765 69.08549194 42.06152344 70.67163086 C42.85478027 72.04496582 42.85478027 72.04496582 43.6640625 73.44604492 C47.06986695 79.50909892 47.8494391 83.90230578 47.04589844 90.90600586 C45.3925256 95.78569 42.30137502 99.06902147 38.04589844 101.90600586 C28.0263276 105.24586281 15.65258594 102.29487643 5.35839844 100.90600586 C-9.18182683 97.68236272 -9.18182683 97.68236272 -22.54980469 100.07763672 C-24.34145612 102.41033449 -25.41526465 104.77447602 -26.59082031 107.47241211 C-27.08187256 108.58986816 -27.5729248 109.70732422 -28.07885742 110.85864258 C-28.59456299 112.04989746 -29.11026855 113.24115234 -29.64160156 114.46850586 C-30.17925641 115.69299524 -30.71775417 116.91711485 -31.25708008 118.14086914 C-33.65308012 123.58613935 -36.01836269 129.04389442 -38.34472656 134.51928711 C-38.69575439 135.33518311 -39.04678223 136.1510791 -39.40844727 136.99169922 C-40.04264461 138.46844829 -40.66695384 139.94950211 -41.27905273 141.43554688 C-43.49430529 146.57969462 -46.22052003 150.09459641 -50.89941406 153.19506836 C-56.49304104 155.13050583 -62.99031765 154.77879871 -68.32910156 152.40600586 C-74.83747672 146.20755333 -79.08291509 138.492379 -83.44369507 130.70904541 C-84.83550988 128.22539436 -86.23998244 125.74898061 -87.6438446 123.27212524 C-88.36439644 122.0007812 -89.08437637 120.72911284 -89.80378723 119.4571228 C-93.20146499 113.45353065 -96.6609797 107.48687891 -100.14160156 101.53100586 C-100.70314941 100.56783447 -101.26469727 99.60466309 -101.84326172 98.61230469 C-104.77157301 93.59988376 -107.7275189 88.6055675 -110.71582031 83.62866211 C-111.32208252 82.61529785 -111.92834473 81.60193359 -112.55297852 80.55786133 C-113.71106792 78.62500614 -114.87471218 76.6954651 -116.04467773 74.76977539 C-116.81581909 73.48176025 -116.81581909 73.48176025 -117.60253906 72.16772461 C-118.05806152 71.41450928 -118.51358398 70.66129395 -118.98291016 69.88525391 C-119.95410156 67.90600586 -119.95410156 67.90600586 -119.95410156 64.90600586 C-118.92671875 64.65206055 -117.89933594 64.39811523 -116.84082031 64.13647461 C-115.44106438 63.78888421 -114.04132574 63.44122415 -112.64160156 63.09350586 C-111.97064453 62.92786133 -111.2996875 62.7622168 -110.60839844 62.59155273 C-108.38783902 62.03901917 -106.17071592 61.4741567 -103.95410156 60.90600586 C-103.11137695 60.69363281 -102.26865234 60.48125977 -101.40039062 60.26245117 C-63.98644601 50.50640992 -30.3486071 30.06356399 -4.18066406 1.67944336 C-1.95410156 -0.09399414 -1.95410156 -0.09399414 0 0 Z " fill="#D83030" transform="translate(413.9541015625,358.093994140625)"/>
<path d="M0 0 C1.1725131 0.95117134 2.33787015 1.91117009 3.5 2.875 C4.47453125 3.67550781 4.47453125 3.67550781 5.46875 4.4921875 C5.9740625 4.98976563 6.479375 5.48734375 7 6 C7 6.66 7 7.32 7 8 C7.59425781 8.26167969 8.18851563 8.52335937 8.80078125 8.79296875 C11.13388034 10.07347962 12.41270188 11.34378094 14.1875 13.3125 C42.05709108 41.74875559 81.98157398 57.45807651 120 66 C119.32313971 69.48616154 117.93012425 72.17749011 116.19140625 75.26171875 C115.61463135 76.289021 115.03785645 77.31632324 114.44360352 78.37475586 C113.51245728 80.01456421 113.51245728 80.01456421 112.5625 81.6875 C111.9243335 82.81873291 111.28616699 83.94996582 110.62866211 85.11547852 C106.78461487 91.91060918 102.89149697 98.67397272 98.9050293 105.38647461 C95.67697305 110.82495528 92.5166106 116.30067974 89.36694336 121.78491211 C86.8075931 126.23703347 84.23400467 130.6808385 81.65917969 135.12402344 C80.26155801 137.54662252 78.88123467 139.97772089 77.5078125 142.4140625 C71.47799918 152.94863359 71.47799918 152.94863359 65 155 C58.48220817 155.81027194 53.31552941 155.83515373 47.57128906 152.25878906 C44.91881406 150.13384172 43.79820365 147.68050358 42.375 144.625 C42.06288574 143.9659668 41.75077148 143.30693359 41.42919922 142.62792969 C37.2164691 133.58452314 33.31922643 124.3804308 29.39208984 115.20947266 C29.11689514 114.56690521 28.84170044 113.92433777 28.5581665 113.26229858 C27.80181169 111.49351962 27.04756891 109.72383795 26.29345703 107.95410156 C24.562136 103.16695304 24.562136 103.16695304 21 100 C11.54240889 99.12200477 1.88743858 101.02859912 -7.46948242 102.29101562 C-34.46289144 105.90283142 -34.46289144 105.90283142 -41 101 C-45.19882005 96.78967634 -47.14625524 93.08439473 -47.4921875 87.1328125 C-47.41055412 79.60522527 -43.9078784 74.19015521 -40.125 67.875 C-39.4263084 66.67055468 -38.7297137 65.46489069 -38.03515625 64.25805664 C-36.04993933 60.82265873 -34.02688976 57.41096592 -32 54 C-31.09984257 52.46063987 -30.20112866 50.92043349 -29.3046875 49.37890625 C-27.77288326 46.75281975 -26.22732394 44.13558077 -24.671875 41.5234375 C-20.49022077 34.4787571 -16.43205335 27.36116977 -12.3515625 20.25756836 C-1.64121048 1.64121048 -1.64121048 1.64121048 0 0 Z " fill="#D83130" transform="translate(98,357)"/>
<path d="M0 0 C12.26794323 6.1685292 19.45555722 14.9794208 24.3359375 27.70703125 C27.50535997 38.69165356 25.04411796 50.4020868 19.96484375 60.40625 C13.94731191 70.19521545 5.39994267 76.32144905 -5.25 80.125 C-17.93490541 82.8467612 -29.3153685 81.24604819 -40.27734375 74.265625 C-49.26330126 67.74669409 -55.36209432 58.77153512 -57.75 47.875 C-58.96640696 33.85863624 -57.80032878 22.98535327 -48.59375 11.90625 C-36.39064799 -1.53784544 -17.26839371 -6.91622444 0 0 Z " fill="#FDDC30" transform="translate(187.75,174.125)"/>
<path d="M0 0 C1.06669922 -0.00515625 2.13339844 -0.0103125 3.23242188 -0.015625 C4.89047852 0.00757813 4.89047852 0.00757813 6.58203125 0.03125 C8.21108398 0.00804687 8.21108398 0.00804687 9.87304688 -0.015625 C19.88188892 0.03246553 28.21832491 2.35504366 35.39453125 9.53125 C38.8794107 14.45814854 39.54442582 18.50452817 39.58203125 24.46875 C39.59621094 25.48839844 39.61039063 26.50804687 39.625 27.55859375 C39.39453125 30.53125 39.39453125 30.53125 38.3203125 33.16015625 C37.24171157 35.92264893 37.28181572 36.82435549 38.39453125 39.53125 C39.34075389 41.10649564 40.345149 42.64776301 41.39453125 44.15625 C46.18983125 51.0956024 46.11317326 57.26273672 45.39453125 65.53125 C43.43252982 72.29707557 39.52066115 77.93620851 33.39453125 81.53125 C26.27757004 85.1459399 19.14418422 85.02377602 11.33886719 84.97729492 C9.13513842 84.96871342 6.93394706 84.99772772 4.73046875 85.02929688 C3.32161535 85.03090753 1.91275739 85.03033395 0.50390625 85.02734375 C-0.76485352 85.02919678 -2.03361328 85.0310498 -3.34082031 85.03295898 C-7.30206971 84.42419683 -8.21874257 83.70053808 -10.60546875 80.53125 C-11.00564066 77.93476564 -11.16345758 75.75887857 -11.13891602 73.1640625 C-11.14753159 72.4286322 -11.15614716 71.6932019 -11.1650238 70.93548584 C-11.18769475 68.50871413 -11.18094397 66.08309607 -11.171875 63.65625 C-11.17710987 61.96760718 -11.18338585 60.2789673 -11.19065857 58.59033203 C-11.2010646 55.05291983 -11.19649823 51.51590985 -11.18188477 47.97851562 C-11.16469007 43.44521956 -11.18819852 38.91319013 -11.22337437 34.3800354 C-11.24533332 30.89355063 -11.24391074 27.40736971 -11.23560905 23.9208374 C-11.23478882 22.24947723 -11.24166605 20.57809492 -11.25638008 18.90679932 C-11.27380109 16.5698861 -11.25930816 14.23525867 -11.23657227 11.8984375 C-11.24826447 11.20844666 -11.25995667 10.51845581 -11.27200317 9.80755615 C-11.19941846 6.1410606 -10.83609967 4.7674897 -8.23501587 2.10314941 C-5.22418425 0.30332448 -3.48529387 0.01642208 0 0 Z " fill="#FDDD30" transform="translate(64.60546875,170.46875)"/>
<path d="M0 0 C133.32 0 266.64 0 404 0 C405 2 405 2 404.37011719 4.11279297 C403.17565211 7.03917807 401.97856005 9.96270041 400.75 12.875 C400.29544434 13.95402588 399.84088867 15.03305176 399.37255859 16.14477539 C388.74647769 40.86322804 374.00911605 65.12896806 353.4375 82.83984375 C350.96226252 85.03344363 348.71510671 87.35312672 346.4375 89.75 C334.61675124 101.64451318 320.45328265 110.66182759 306 119 C305.39575195 119.35900391 304.79150391 119.71800781 304.16894531 120.08789062 C269.84274375 140.43078402 231.19541873 146.56321482 192 146 C192 145.67 192 145.34 192 145 C192.60247559 144.93006836 193.20495117 144.86013672 193.82568359 144.78808594 C252.15281722 137.90262814 306.21971642 113.42789368 343.64453125 66.95800781 C359.42196817 46.89786933 371.05679804 24.84853855 380 1 C254.6 1 129.2 1 0 1 C0 0.67 0 0.34 0 0 Z " fill="#F86F0F" transform="translate(54,281)"/>
<path d="M0 0 C53.6675204 -1.34078556 104.04251842 12.32046343 146 47 C146.87180908 47.71953857 146.87180908 47.71953857 147.76123047 48.45361328 C158.97850666 57.77188998 168.94100368 67.53038941 178 79 C178.78117188 79.95261719 179.56234375 80.90523438 180.3671875 81.88671875 C195.14603443 100.32486483 207.33683373 122.28466044 214 145 C205.75 145 197.5 145 189 145 C187.9275 142.174375 186.855 139.34875 185.75 136.4375 C176.86435326 113.87786161 164.87580753 93.33141804 149 75 C148.28328125 74.17242187 147.5665625 73.34484375 146.828125 72.4921875 C137.57749736 62.02782503 127.92626261 52.68426497 116.76318359 44.32324219 C115.08730314 43.06551966 113.42850494 41.7876937 111.76953125 40.5078125 C96.39994251 28.8757071 79.05536133 20.41456104 61.03271484 13.75927734 C59.37023992 13.13829524 57.72348133 12.47537988 56.08203125 11.80078125 C38.36504984 4.67455502 18.83264576 2.81195957 0 1 C0 0.67 0 0.34 0 0 Z " fill="#FA700B" transform="translate(245,0)"/>
<path d="M0 0 C4.37477474 -0.11651725 8.74914827 -0.18736 13.125 -0.25 C14.98125 -0.30027344 14.98125 -0.30027344 16.875 -0.3515625 C28.25760651 -0.47395612 28.25760651 -0.47395612 33 4 C37.72509897 9.36362586 38.50453302 12.71933778 38.37890625 19.8046875 C37.17706836 29.93977401 27.68232662 38.66452106 21.56640625 46.4296875 C18.35707192 50.51993114 15.23069184 54.65978335 12.1875 58.875 C11.77338867 59.43928711 11.35927734 60.00357422 10.93261719 60.58496094 C7.99299067 64.45220349 7.99299067 64.45220349 7 69 C9.93070855 75.25999347 14.33364147 80.50834515 18.5625 85.9375 C19.99281653 87.80972419 21.42118774 89.68343606 22.84765625 91.55859375 C24.8258713 94.15758568 26.80649549 96.75281058 28.81982422 99.32470703 C39.60990345 113.15096935 39.60990345 113.15096935 38.6328125 123.28515625 C37.23825853 129.26796493 33.93855032 132.58100363 29 136 C25.70265354 137.09911549 23.27041255 137.1139456 19.80078125 137.09765625 C18.59228516 137.09443359 17.38378906 137.09121094 16.13867188 137.08789062 C14.87603516 137.07951172 13.61339844 137.07113281 12.3125 137.0625 C10.40114258 137.05573242 10.40114258 137.05573242 8.45117188 137.04882812 C5.30073436 137.03702873 2.15039051 137.02056597 -1 137 C-0.401875 136.70609375 0.19625 136.4121875 0.8125 136.109375 C6.2841215 133.33448124 10.32909995 130.64998087 13 125 C14.20349535 118.9728953 13.57250019 114.19920917 10.375 108.9375 C8.95201045 106.91702802 7.50787844 104.95488688 6 103 C5.49033691 102.33548828 4.98067383 101.67097656 4.45556641 100.98632812 C1.50196002 97.15083115 -1.47675014 93.33516589 -4.4609375 89.5234375 C-5.05487305 88.76385742 -5.64880859 88.00427734 -6.26074219 87.22167969 C-7.38111536 85.79054607 -8.50397308 84.36135227 -9.62988281 82.93457031 C-11.08658725 81.07544084 -12.51525599 79.19805273 -13.9375 77.3125 C-14.58392456 76.50365356 -14.58392456 76.50365356 -15.2434082 75.6784668 C-17.26104146 72.95357807 -17.99280382 71.11405259 -18.20703125 67.71875 C-16.45965384 62.33524418 -13.2752227 58.5579846 -9.75 54.1875 C-8.29371623 52.33088193 -6.83932162 50.47278065 -5.38671875 48.61328125 C-4.65372559 47.68080566 -3.92073242 46.74833008 -3.16552734 45.78759766 C0.12710578 41.54912133 3.29470527 37.22521886 6.4375 32.875 C6.98631836 32.12371826 7.53513672 31.37243652 8.10058594 30.59838867 C8.60235352 29.90334229 9.10412109 29.2082959 9.62109375 28.4921875 C10.0586499 27.88745605 10.49620605 27.28272461 10.94702148 26.65966797 C13.63070629 22.42973768 13.5611808 17.824596 13 13 C11.65831626 8.77807126 10.06574485 5.79930864 6.5 3.125 C5.675 2.75375 4.85 2.3825 4 2 C2.66473712 1.33720647 1.33106965 0.67117495 0 0 Z " fill="#C41926" transform="translate(474,145)"/>
<path d="M0 0 C5.51292667 4.46238645 8.98486696 10.74131948 12.8125 16.625 C17.36897655 23.59270289 21.98028219 30.46980755 26.9519043 37.14990234 C29.74033452 41.03023783 32.3681231 45.01240701 35 49 C35.00364563 48.44511902 35.00729126 47.89023804 35.01104736 47.31854248 C35.0528584 41.54315306 35.12219341 35.7685594 35.20751953 29.99365234 C35.23574499 27.83845987 35.25695165 25.68316357 35.27099609 23.52783203 C35.29240347 20.4294717 35.3390432 17.33236173 35.390625 14.234375 C35.39185364 13.27070007 35.39308228 12.30702515 35.39434814 11.31414795 C35.54010203 4.65696191 35.54010203 4.65696191 37.82324219 1.39550781 C41.09014479 -0.69888601 43.2053639 -0.59915307 47 0 C50.31821289 2.59266977 51.82442077 4.07809693 52.62145996 8.26306152 C52.61940552 9.49818481 52.61735107 10.73330811 52.61523438 12.00585938 C52.62078339 12.69106155 52.6263324 13.37626373 52.63204956 14.08222961 C52.64381614 16.33679165 52.61960524 18.58932999 52.59375 20.84375 C52.59203798 22.41646228 52.59210551 23.98917742 52.59387207 25.56188965 C52.59222055 28.85387571 52.5735546 32.14517938 52.54199219 35.43701172 C52.50231454 39.6504726 52.49794786 43.86304027 52.50545502 48.07665253 C52.50852888 51.32297913 52.49638951 54.56910602 52.47932434 57.81538391 C52.47230774 59.36866503 52.46916818 60.92196877 52.47001648 62.4752655 C52.46821273 64.64863763 52.44678389 66.82095213 52.41992188 68.99414062 C52.41150269 70.22926392 52.4030835 71.46438721 52.39440918 72.73693848 C51.96719818 76.27137897 51.12685777 78.17355429 49 81 C45.86128812 82.56935594 43.46144178 82.35201103 40 82 C37.80894851 80.37075658 36.62386092 79.13219999 35 77 C34.46246094 76.30261719 33.92492187 75.60523438 33.37109375 74.88671875 C27.82485932 67.44156481 22.66282006 59.71330381 17.44140625 52.0390625 C13.32954227 46.00167314 9.16357908 40.00177673 5 34 C4.99635437 34.55488098 4.99270874 35.10976196 4.98895264 35.68145752 C4.9471416 41.45684694 4.87780659 47.2314406 4.79248047 53.00634766 C4.76425501 55.16154013 4.74304835 57.31683643 4.72900391 59.47216797 C4.70759653 62.5705283 4.6609568 65.66763827 4.609375 68.765625 C4.60753204 70.21113739 4.60753204 70.21113739 4.60565186 71.68585205 C4.45995217 78.3405624 4.45995217 78.3405624 2.18066406 81.60839844 C-1.04611934 83.66758623 -3.25907829 83.53441739 -7 83 C-9.18640137 81.42346191 -9.18640137 81.42346191 -11 79 C-11.50793457 75.6986084 -11.50793457 75.6986084 -11.51757812 71.72460938 C-11.5245874 70.99893265 -11.53159668 70.27325592 -11.53881836 69.52558899 C-11.55639717 67.13125127 -11.54477706 64.73809934 -11.53125 62.34375 C-11.53394497 60.67752862 -11.53782744 59.01130877 -11.54284668 57.34509277 C-11.54874153 53.85474662 -11.5401795 50.36481021 -11.52148438 46.87451172 C-11.49869445 42.40188737 -11.51181766 37.9302231 -11.53577423 33.45763397 C-11.55023277 30.01748427 -11.54562605 26.57756197 -11.53526306 23.1374054 C-11.53259591 21.4883869 -11.53586515 19.83934773 -11.54518127 18.19035339 C-11.55534829 15.88481008 -11.53984614 13.58081843 -11.51757812 11.27539062 C-11.51439575 9.96397095 -11.51121338 8.65255127 -11.50793457 7.3013916 C-11 4 -11 4 -9.18249512 1.58044434 C-5.95023343 -0.76018389 -3.89057249 -0.61430092 0 0 Z " fill="#FDDC30" transform="translate(243,172)"/>
<path d="M0 0 C0.66 -0.02191406 1.32 -0.04382813 2 -0.06640625 C5.36207218 0.99080785 6.2011624 2.52223384 8 5.5625 C8.58196246 9.60197952 8.50922135 13.61271242 8.46875 17.6875 C8.47579956 18.86715332 8.48284912 20.04680664 8.4901123 21.26220703 C8.51962949 26.30447591 8.50294878 31.34635958 8.49072266 36.38867188 C8.4883458 40.07185075 8.50923994 43.75439926 8.53125 47.4375 C8.51993042 48.57719238 8.50861084 49.71688477 8.49694824 50.89111328 C8.48681811 57.09784704 8.48681811 57.09784704 10.86132812 62.70703125 C15.41030391 66.65363125 19.64065392 68.24324589 25.6171875 68.05078125 C30.07335124 67.13763294 33.68888231 64.61460849 37 61.5625 C38.97437507 58.37908656 39.2543669 55.91450578 39.27124023 52.19897461 C39.28142685 51.1278392 39.29161346 50.0567038 39.30210876 48.95310974 C39.30424881 47.80198196 39.30638885 46.65085419 39.30859375 45.46484375 C39.333743 43.03059645 39.35914118 40.59635172 39.38476562 38.16210938 C39.41357544 34.32153933 39.43759248 30.48101358 39.45629883 26.64038086 C39.47787703 22.9358065 39.51729994 19.23174293 39.55859375 15.52734375 C39.55870956 14.37419174 39.55882538 13.22103973 39.5589447 12.03294373 C39.57228348 10.96496048 39.58562225 9.89697723 39.59936523 8.79663086 C39.60697121 7.38576454 39.60697121 7.38576454 39.61473083 5.94639587 C40 3.5625 40 3.5625 41.27894592 1.76271057 C43.70127337 0.07345336 46.07984886 0.14978761 48.96484375 0.06640625 C51.9290563 0.78896862 53.07740191 2.22939453 55 4.5625 C55.50120544 7.11566162 55.50120544 7.11566162 55.50170898 10.03027344 C55.51108994 11.12531189 55.52047089 12.22035034 55.53013611 13.34857178 C55.51890213 14.52776184 55.50766815 15.7069519 55.49609375 16.921875 C55.49754898 18.14022034 55.49900421 19.35856567 55.50050354 20.61383057 C55.49884321 23.19277332 55.48726711 25.77172584 55.46655273 28.35058594 C55.43771166 32.28363582 55.44592002 36.21532835 55.45898438 40.1484375 C55.45274338 42.65625652 55.44434963 45.16407128 55.43359375 47.671875 C55.43652939 48.84296814 55.43946503 50.01406128 55.44248962 51.22064209 C55.3366364 60.46428862 53.8501819 67.69894486 47.3203125 74.59765625 C38.7635077 81.84357008 29.78822295 84.90114451 18.70703125 84.1171875 C10.53162878 82.89389229 3.55952656 78.65574111 -2 72.5625 C-5.85641196 67.11033137 -8.23805252 61.6059073 -8.29052734 54.91772461 C-8.30328705 53.80985092 -8.31604675 52.70197723 -8.32919312 51.56053162 C-8.33141876 50.37395462 -8.33364441 49.18737762 -8.3359375 47.96484375 C-8.3425943 46.73842667 -8.3492511 45.51200958 -8.35610962 44.24842834 C-8.36622467 41.65871682 -8.37092699 39.0689793 -8.37060547 36.47924805 C-8.37498772 32.5111226 -8.41134697 28.54410127 -8.44921875 24.57617188 C-8.45508519 22.05989964 -8.45905574 19.54362212 -8.4609375 17.02734375 C-8.47530853 15.83874252 -8.48967957 14.6501413 -8.50448608 13.42552185 C-8.49833282 12.32080032 -8.49217957 11.2160788 -8.48583984 10.07788086 C-8.48868988 9.10701035 -8.49153992 8.13613983 -8.49447632 7.135849 C-7.61643836 2.56637211 -4.64151448 -0.00906546 0 0 Z " fill="#FDDB30" transform="translate(325,171.4375)"/>
<path d="M0 0 C0.6496875 0.38027344 1.299375 0.76054687 1.96875 1.15234375 C4.24103919 2.57252449 5.78423811 3.56847622 7 6 C7.53758841 10.03191305 7.3075996 11.5619036 4.9375 14.9375 C2 17 2 17 -1.1875 17.125 C-4.47365655 16.15531446 -6.84365781 15.06152183 -9.8125 13.4375 C-14.8874502 10.75668661 -19.32479521 10.05413253 -25 11 C-27.24838065 11.69643264 -27.24838065 11.69643264 -29 13 C-29.81870185 16.56206661 -29.81870185 16.56206661 -30 20 C-27.15232225 22.30829505 -24.49868136 23.75007481 -21.078125 25.05078125 C-20.13453125 25.42009766 -19.1909375 25.78941406 -18.21875 26.16992188 C-16.2571145 26.92489343 -14.29359426 27.674988 -12.328125 28.41992188 C-3.70478914 31.81184542 3.4059664 35.73073951 8 44 C10.23510516 50.70531547 9.91085179 57.937915 7 64.375 C3.35313347 70.77499394 -2.45115841 75.22518169 -9.484375 77.5234375 C-20.22682076 79.5584971 -30.53651769 78.74473363 -40 73 C-49.4681532 66.31733251 -49.4681532 66.31733251 -50.875 60.1875 C-49.86058291 56.49212346 -49.23331052 55.07263495 -46 53 C-42.43372027 52.31417698 -40.14751893 52.27941232 -37.015625 54.24609375 C-35.654662 55.30374136 -34.30584006 56.37717241 -32.96875 57.46484375 C-28.38722587 61.03734173 -23.71713433 62.53409913 -17.9921875 62.2890625 C-13.87959897 61.69233397 -10.22627659 60.48175088 -7.5 57.1875 C-6.79810146 54.11669389 -7.16051282 52.0314815 -8 49 C-10.12976385 47.20856099 -10.12976385 47.20856099 -13 46.0625 C-14.07636719 45.5675 -15.15273438 45.0725 -16.26171875 44.5625 C-18.93094953 43.42277968 -21.62510327 42.35918679 -24.33203125 41.3125 C-41.16348495 34.77050485 -41.16348495 34.77050485 -45.13671875 26.6875 C-47.04437028 20.74874772 -47.41384106 12.7979649 -44.5 7.125 C-34.03590121 -7.70222126 -14.82310943 -8.90909488 0 0 Z " fill="#FDDC30" transform="translate(449,177)"/>
<path d="M0 0 C15.74487472 3.07517084 15.74487472 3.07517084 23 5 C22.32313971 8.48616154 20.93012425 11.17749011 19.19140625 14.26171875 C18.61463135 15.289021 18.03785645 16.31632324 17.44360352 17.37475586 C16.82283936 18.46796143 16.2020752 19.56116699 15.5625 20.6875 C14.9243335 21.81873291 14.28616699 22.94996582 13.62866211 24.11547852 C9.78461487 30.91060918 5.89149697 37.67397272 1.9050293 44.38647461 C-1.32302695 49.82495528 -4.4833894 55.30067974 -7.63305664 60.78491211 C-10.1924069 65.23703347 -12.76599533 69.6808385 -15.34082031 74.12402344 C-16.73844199 76.54662252 -18.11876533 78.97772089 -19.4921875 81.4140625 C-25.52200082 91.94863359 -25.52200082 91.94863359 -32 94 C-39.49060662 94.93120929 -44.85333604 94.47030107 -51 90 C-50.34775705 86.40430169 -48.84334453 83.93402895 -46.875 80.875 C-42.71948892 74.28837359 -38.81853094 67.56374674 -34.9375 60.8125 C-34.29498291 59.69512451 -33.65246582 58.57774902 -32.99047852 57.42651367 C-31.99527149 55.69479708 -31.00006968 53.96307737 -30.00553894 52.23097229 C-27.08010934 47.13609903 -24.14255482 42.04827272 -21.20361328 36.96118164 C-14.09866143 24.66189176 -7.03321654 12.34044157 0 0 Z " fill="#C41926" transform="translate(195,418)"/>
<path d="M0 0 C2.83021498 1.30884138 3.50882366 2.91958119 4.97338867 5.65332031 C5.51987061 6.65419678 6.06635254 7.65507324 6.62939453 8.6862793 C7.20955322 9.77755127 7.78971191 10.86882324 8.38745117 11.99316406 C9.64461082 14.29891852 10.90377575 16.60358061 12.16479492 18.90722656 C12.64545158 19.79041817 12.64545158 19.79041817 13.13581848 20.69145203 C16.29371583 26.48454896 19.60547388 32.18140893 22.94995117 37.86816406 C24.10001187 39.83021546 25.24974715 41.79245763 26.39916992 43.75488281 C26.98102051 44.74794434 27.56287109 45.74100586 28.16235352 46.76416016 C31.20944972 51.97936704 34.23521326 57.20684514 37.25564575 62.43753052 C38.2412889 64.14402475 39.22829562 65.84973117 40.21533203 67.55541992 C41.11264038 69.11015015 41.11264038 69.11015015 42.02807617 70.69628906 C42.82133301 72.06962402 42.82133301 72.06962402 43.63061523 73.47070312 C47.03641968 79.53375713 47.81599183 83.92696399 47.01245117 90.93066406 C45.35907834 95.81034821 42.26792775 99.09367968 38.01245117 101.93066406 C27.91289531 105.29718268 15.38352311 102.32175395 5.01245117 100.93066406 C8.01245117 98.93066406 8.01245117 98.93066406 11.32495117 98.24316406 C15.99198285 96.58201719 18.39782106 94.08950524 21.01245117 89.93066406 C22.84888288 84.98310099 22.50737387 80.19976751 20.61401367 75.34472656 C19.97131294 74.07340984 19.31143837 72.8106747 18.63745117 71.55566406 C18.09616577 70.51321533 18.09616577 70.51321533 17.54394531 69.44970703 C14.21880666 63.13130537 10.60767657 56.98552153 6.94213867 50.86035156 C3.24719589 44.67596396 -0.33322785 38.42524804 -3.92504883 32.18066406 C-5.20465757 29.95651056 -6.48458608 27.73254098 -7.76489258 25.50878906 C-8.58848267 24.07647949 -8.58848267 24.07647949 -9.42871094 22.61523438 C-10.48606639 20.79429771 -11.57365889 18.99064922 -12.68774414 17.20385742 C-13.98754883 14.93066406 -13.98754883 14.93066406 -14.00708008 12.98144531 C-12.45190175 9.85321303 -10.1234696 7.55391513 -7.67504883 5.11816406 C-7.18842773 4.60318359 -6.70180664 4.08820313 -6.20043945 3.55761719 C-2.5726072 -0.08974579 -2.5726072 -0.08974579 0 0 Z " fill="#C41926" transform="translate(413.987548828125,358.0693359375)"/>
<path d="M0 0 C3.85132656 2.70048638 6.34764065 5.77697879 8.640625 9.8515625 C9.01316406 10.44066406 9.38570312 11.02976563 9.76953125 11.63671875 C12.01275101 17.34033131 11.76113861 26.99464367 9.578125 32.7890625 C5.08989041 39.88336879 0.02510104 45.92319014 -8.2734375 48.4296875 C-16.04211873 50.00088146 -22.58389622 48.90677471 -29.359375 44.8515625 C-35.89991304 40.4825865 -38.90960048 35.20088607 -41.359375 27.8515625 C-42.22885386 19.28505762 -41.0440393 11.83445049 -35.8515625 4.8125 C-25.90089053 -6.06381588 -12.60609897 -6.96305467 0 0 Z " fill="#D83230" transform="translate(186.359375,191.1484375)"/>
<path d="M0 0 C5.02271493 0.50711808 10.01161424 1.22724868 15 2 C14.01 2.66 13.02 3.32 12 4 C9.08782535 6.442454 7.8716669 9.10461521 6.36328125 12.56640625 C5.62670288 14.24259033 5.62670288 14.24259033 4.87524414 15.95263672 C4.35953857 17.1438916 3.84383301 18.33514648 3.3125 19.5625 C2.77484515 20.78698938 2.23634739 22.011109 1.69702148 23.23486328 C-0.69897856 28.68013349 -3.06426113 34.13788856 -5.390625 39.61328125 C-5.74165283 40.42917725 -6.09268066 41.24507324 -6.4543457 42.08569336 C-7.08854305 43.56244243 -7.71285228 45.04349625 -8.32495117 46.52954102 C-10.54020373 51.67368876 -13.26641847 55.18859055 -17.9453125 58.2890625 C-22.8900604 59.99998288 -29.19197398 60.0050868 -34.1171875 58.2421875 C-35.75 57.25 -35.75 57.25 -38 55 C-38 50.82414914 -37.4435763 50.01152326 -35.15213013 46.79232788 C-32.85954489 43.22583452 -31.39456945 39.23786542 -29.77734375 35.33203125 C-28.98374727 33.45116204 -28.19012677 31.57030296 -27.39648438 29.68945312 C-26.16130177 26.74083348 -24.92860362 23.79118965 -23.69702148 20.84106445 C-22.50065061 17.98131309 -21.29559144 15.12533891 -20.08984375 12.26953125 C-19.7241478 11.3851387 -19.35845184 10.50074615 -18.98167419 9.58955383 C-18.46081993 8.35763557 -18.46081993 8.35763557 -17.92944336 7.10083008 C-17.62840195 6.37946365 -17.32736053 5.65809723 -17.01719666 4.91487122 C-13.30300872 -2.07708214 -7.03336618 -0.44276093 0 0 Z " fill="#C41926" transform="translate(381,453)"/>
<path d="M0 0 C2.84625 -0.0825 5.6925 -0.165 8.625 -0.25 C9.51010254 -0.28641602 10.39520508 -0.32283203 11.30712891 -0.36035156 C16.6946415 -0.4355318 19.75911288 0.3724104 24 4 C26.48386059 7.72579089 26.3804212 9.58711402 26 14 C24.17671302 18.22234879 22.14608787 20.08516205 18 22 C14.88278688 22.35560882 11.81952753 22.28316243 8.6875 22.1875 C5.820625 22.125625 2.95375 22.06375 0 22 C0 14.74 0 7.48 0 0 Z " fill="#D93630" transform="translate(69,218)"/>
<path d="M0 0 C2.371875 -0.103125 4.74375 -0.20625 7.1875 -0.3125 C7.92508545 -0.35802002 8.6626709 -0.40354004 9.42260742 -0.45043945 C13.31632414 -0.53194196 14.87071265 -0.10223119 17.94921875 2.33203125 C20 5 20 5 20.625 8 C19.77263548 12.09134968 18.26006239 13.42217583 15 16 C12.11628549 16.37353815 10.01710038 16.48712853 7.1875 16.3125 C4.815625 16.209375 2.44375 16.10625 0 16 C0 10.72 0 5.44 0 0 Z " fill="#D83430" transform="translate(69,187)"/>
</svg>
