<?xml version="1.0" encoding="UTF-8"?>
<svg version="1.1" xmlns="http://www.w3.org/2000/svg" width="512" height="512">
<path d="M0 0 C2.12588501 -0.00005614 4.25177002 -0.0001172 6.37765503 -0.00018311 C36.77941783 0.00683065 67.11100893 0.29221208 97.47021484 2.05145264 C100.6358324 2.23054303 103.80240096 2.38758951 106.96913147 2.54553223 C110.45953047 2.7233773 113.94839615 2.92325277 117.4375 3.125 C119.17012085 3.2185376 119.17012085 3.2185376 120.93774414 3.31396484 C132.2439407 4.06996024 142.68914409 6.54243208 150.6640625 15.109375 C160.94545221 28.1763629 160.27305143 45.86402733 161.4375 61.8125 C161.50159058 62.6858902 161.56568115 63.5592804 161.63171387 64.45913696 C163.69727062 93.16373148 164.25684469 121.92075651 163.5 150.6875 C163.47885132 151.49899506 163.45770264 152.31049011 163.43591309 153.14657593 C163.04849137 167.15790881 163.04849137 167.15790881 161.875 172.1875 C163.09525879 172.17702637 164.31551758 172.16655273 165.57275391 172.15576172 C208.86901965 171.82107185 252.14000962 172.80692909 295.375 175.1875 C296.68855469 175.2582373 298.00210937 175.32897461 299.35546875 175.40185547 C329.26504537 177.21756701 329.26504537 177.21756701 339.34375 188.17578125 C347.38608278 198.7416011 348.22558099 211.0693547 349.25268555 223.83129883 C349.43462433 226.08931048 349.62563976 228.34640131 349.81835938 230.60351562 C351.20430307 247.19798386 352.0355594 263.72074243 352.078125 280.37109375 C352.0850206 282.06809002 352.09196982 283.76508607 352.09896851 285.46208191 C352.11797883 290.84972356 352.12262519 296.23732908 352.125 301.625 C352.12632557 302.99669971 352.12632557 302.99669971 352.12767792 304.39611053 C352.1514378 332.07667568 351.92225261 359.6411985 348.875 387.1875 C348.79612549 387.91352417 348.71725098 388.63954834 348.63598633 389.38757324 C346.83989996 405.65784628 346.83989996 405.65784628 342.875 412.1875 C342.45347656 412.88230469 342.03195312 413.57710938 341.59765625 414.29296875 C336.16432117 422.31503966 328.24608501 427.05836631 318.875 429.1875 C316.64829518 429.51708447 314.41887316 429.82866554 312.1875 430.125 C305.6493168 431.05467174 302.02148145 432.80896651 297.5625 437.75 C295.26490241 441.06875208 294.75056355 443.59416808 294.71728516 447.53198242 C294.70702301 448.40686813 294.69676086 449.28175385 294.68618774 450.18315125 C294.67888641 451.12689102 294.67158508 452.0706308 294.6640625 453.04296875 C294.63598292 455.04753405 294.60731839 457.05209123 294.578125 459.05664062 C294.53695865 462.21199216 294.50006539 465.36719382 294.47363281 468.52270508 C294.44588874 471.57144431 294.40000636 474.61949726 294.3515625 477.66796875 C294.3466832 479.06839668 294.3466832 479.06839668 294.34170532 480.49711609 C294.22763972 486.62951183 293.79335532 492.97213946 289.45889282 497.74772644 C284.8902047 501.72042792 281.04846545 502.56064109 275.19921875 502.45703125 C267.73990272 501.59200132 261.40235579 494.78458553 255.875 490.1875 C254.88371094 489.37152344 253.89242188 488.55554688 252.87109375 487.71484375 C236.67479159 474.27996081 221.63226135 460.01346198 209.1640625 443 C204.43561715 437.19030605 200.22481828 435.25368257 192.875 434.1875 C188.1194657 433.89867197 183.37269726 433.886213 178.609375 433.87890625 C177.1963467 433.86879959 175.78332625 433.85753893 174.37031555 433.84521484 C171.35733246 433.81977453 168.34436803 433.79868714 165.33132935 433.78103638 C157.33900603 433.73157235 149.34720817 433.63836849 141.35546875 433.53125 C140.54355513 433.52037416 139.7316415 433.50949833 138.89512444 433.49829292 C121.8915361 433.26001287 104.92018262 432.60495465 87.9375 431.75 C86.67184204 431.68837677 85.40618408 431.62675354 84.10217285 431.56326294 C39.14676096 429.34432783 39.14676096 429.34432783 28.875 418.3125 C20.3068313 407.30521758 19.58800869 394.94664212 18.49731445 381.46826172 C18.31506462 379.21914955 18.12413002 376.97091272 17.93164062 374.72265625 C16.52408762 357.91751153 15.71854475 341.21329779 15.7421875 324.3515625 C15.74151099 322.61241645 15.7405381 320.87327049 15.73928833 319.13412476 C15.73783001 315.52576784 15.73990649 311.91743599 15.74462891 308.30908203 C15.75035101 303.71689187 15.74701962 299.12475987 15.74105644 294.53257179 C15.73742197 290.95494152 15.73860217 287.37732477 15.74118423 283.79969406 C15.7418442 282.10704923 15.74105823 280.41440312 15.73870468 278.7217598 C15.72867068 269.49040193 15.88656636 260.37929878 16.875 251.1875 C12.37412447 251.24429209 7.87507436 251.33481973 3.375 251.4375 C2.1065625 251.45167969 0.838125 251.46585938 -0.46875 251.48046875 C-8.76689809 251.69656636 -14.69802082 252.29764941 -21.12109375 257.94140625 C-21.59675781 258.53824219 -22.07242188 259.13507813 -22.5625 259.75 C-23.36373291 260.74700928 -23.36373291 260.74700928 -24.18115234 261.76416016 C-25.47990841 263.38328257 -26.77262422 265.00726818 -28.05932617 266.63598633 C-33.65069294 273.61920658 -39.65091956 280.01654994 -46 286.3125 C-46.91652344 287.23675781 -47.83304687 288.16101563 -48.77734375 289.11328125 C-54.91546792 295.23413925 -61.31793516 300.82455949 -68.125 306.1875 C-68.79644043 306.72262207 -69.46788086 307.25774414 -70.15966797 307.80908203 C-71.80565841 309.11421095 -73.46218173 310.40392098 -75.125 311.6875 C-75.94291016 312.32945312 -75.94291016 312.32945312 -76.77734375 312.984375 C-82.13100348 317.1206989 -86.50326893 317.94773202 -93.125 317.1875 C-96.60398649 316.12278094 -99.16230682 314.5356522 -101.2947998 311.54931641 C-104.24971795 305.97922538 -104.67256078 301.3011728 -104.59375 295.0625 C-104.60079956 294.11616699 -104.60784912 293.16983398 -104.6151123 292.19482422 C-104.64441495 288.17986524 -104.62798716 284.16540256 -104.61572266 280.15039062 C-104.61333277 277.20413663 -104.63430306 274.25865744 -104.65625 271.3125 C-104.64493042 270.41644043 -104.63361084 269.52038086 -104.62194824 268.59716797 C-104.66923348 262.66217137 -105.73174391 258.13194033 -109.125 253.1875 C-113.86838894 248.907223 -118.78379271 248.26057656 -124.875 247.3125 C-136.21963273 245.26540218 -143.59134619 242.04935262 -150.65234375 232.62890625 C-166.36714719 206.57651328 -160.50404992 159.13558593 -160.44245148 129.08154678 C-160.43743422 126.40237331 -160.43595647 123.72321462 -160.43499756 121.04403687 C-160.36407843 28.11049287 -160.36407843 28.11049287 -146.953125 13.78515625 C-137.70095042 5.6993883 -127.85723145 3.98701319 -115.98828125 3.37109375 C-114.91418503 3.30970718 -113.84008881 3.24832062 -112.73344421 3.18507385 C-110.4550661 3.05636756 -108.17647643 2.93135966 -105.89770508 2.80981445 C-102.52048367 2.62943228 -99.14405478 2.43791153 -95.76757812 2.24414062 C-88.88834234 1.85633502 -82.00753186 1.51122859 -75.125 1.1875 C-74.03993164 1.13590729 -72.95486328 1.08431458 -71.83691406 1.03115845 C-47.90113121 -0.06185587 -23.955228 -0.01054384 0 0 Z " fill="#F8D941" transform="translate(160.125,4.8125)"/>
<path d="M0 0 C0.96178665 -0.00414413 1.9235733 -0.00828827 2.914505 -0.01255798 C6.14746711 -0.02242887 9.38030603 -0.02217391 12.61328125 -0.01953125 C13.73001221 -0.01959167 14.84674316 -0.0196521 15.99731445 -0.01971436 C52.14333091 0.00775222 88.33541718 1.18078961 124.42578125 3.16796875 C125.73933594 3.23870605 127.05289062 3.30944336 128.40625 3.38232422 C158.31582662 5.19803576 158.31582662 5.19803576 168.39453125 16.15625 C176.43686403 26.72206985 177.27636224 39.04982345 178.3034668 51.81176758 C178.48540558 54.06977923 178.67642101 56.32687006 178.86914062 58.58398438 C180.25508432 75.17845261 181.08634065 91.70121118 181.12890625 108.3515625 C181.13580185 110.04855877 181.14275107 111.74555482 181.14974976 113.44255066 C181.16876008 118.83019231 181.17340644 124.21779783 181.17578125 129.60546875 C181.17710682 130.97716846 181.17710682 130.97716846 181.17845917 132.37657928 C181.20221905 160.05714443 180.97303386 187.62166725 177.92578125 215.16796875 C177.84690674 215.89399292 177.76803223 216.62001709 177.68676758 217.36804199 C175.89068121 233.63831503 175.89068121 233.63831503 171.92578125 240.16796875 C171.29349609 241.21017578 171.29349609 241.21017578 170.6484375 242.2734375 C165.21510242 250.29550841 157.29686626 255.03883506 147.92578125 257.16796875 C145.69907643 257.49755322 143.46965441 257.80913429 141.23828125 258.10546875 C134.70009805 259.03514049 131.0722627 260.78943526 126.61328125 265.73046875 C124.31568366 269.04922083 123.8013448 271.57463683 123.76806641 275.51245117 C123.75780426 276.38733688 123.74754211 277.2622226 123.73696899 278.16362 C123.72966766 279.10735977 123.72236633 280.05109955 123.71484375 281.0234375 C123.68676417 283.0280028 123.65809964 285.03255998 123.62890625 287.03710938 C123.5877399 290.19246091 123.55084664 293.34766257 123.52441406 296.50317383 C123.49666999 299.55191306 123.45078761 302.59996601 123.40234375 305.6484375 C123.39746445 307.04886543 123.39746445 307.04886543 123.39248657 308.47758484 C123.27842097 314.60998058 122.84413657 320.95260821 118.50967407 325.72819519 C113.94098595 329.70089667 110.0992467 330.54110984 104.25 330.4375 C96.79068397 329.57247007 90.45313704 322.76505428 84.92578125 318.16796875 C83.93449219 317.35199219 82.94320312 316.53601563 81.921875 315.6953125 C65.72557284 302.26042956 50.6830426 287.99393073 38.21484375 270.98046875 C33.4863984 265.1707748 29.27559953 263.23415132 21.92578125 262.16796875 C17.17024695 261.87914072 12.42347851 261.86668175 7.66015625 261.859375 C6.24712795 261.84926834 4.8341075 261.83800768 3.4210968 261.82568359 C0.40811371 261.80024328 -2.60485072 261.77915589 -5.6178894 261.76150513 C-13.61021272 261.7120411 -21.60201058 261.61883724 -29.59375 261.51171875 C-30.40566362 261.50084291 -31.21757725 261.48996708 -32.05409431 261.47876167 C-49.05768265 261.24048162 -66.02903613 260.5854234 -83.01171875 259.73046875 C-84.27737671 259.66884552 -85.54303467 259.60722229 -86.8470459 259.54373169 C-131.80245779 257.32479658 -131.80245779 257.32479658 -142.07421875 246.29296875 C-150.64238745 235.28568633 -151.36121006 222.92711087 -152.4519043 209.44873047 C-152.63415413 207.1996183 -152.82508873 204.95138147 -153.01757812 202.703125 C-154.42413733 185.90984544 -155.23070107 169.21702805 -155.20703125 152.3671875 C-155.20770782 150.63043708 -155.20868076 148.89368675 -155.20993042 147.15693665 C-155.21138885 143.55277588 -155.20931217 139.94864022 -155.20458984 136.34448242 C-155.19887204 131.76135878 -155.20219639 127.17829348 -155.20816231 122.59517193 C-155.21180013 119.02179028 -155.21061499 115.44842214 -155.20803452 111.87504005 C-155.20737525 110.18601283 -155.20815796 108.49698431 -155.21051407 106.8079586 C-155.22098489 97.20461287 -155.00258896 87.73494618 -154.07421875 78.16796875 C-153.22850815 78.14735382 -152.38279755 78.12673889 -151.51145935 78.10549927 C-143.38292325 77.90624426 -135.25456672 77.70087217 -127.12634182 77.48929024 C-122.95156811 77.38081683 -118.77676717 77.27438905 -114.60180664 77.17333984 C-93.04841883 76.64978535 -71.57589329 75.78658006 -50.07421875 74.16796875 C-48.96625946 74.0936261 -47.85830017 74.01928345 -46.71676636 73.94268799 C-45.65708649 73.86637146 -44.59740662 73.79005493 -43.50561523 73.71142578 C-42.57192612 73.64714386 -41.638237 73.58286194 -40.67625427 73.51663208 C-36.34763697 72.93661305 -32.82736074 71.33567132 -29.07421875 69.16796875 C-28.37425781 68.77996094 -27.67429687 68.39195312 -26.953125 67.9921875 C-20.18420242 63.65444694 -16.42374058 56.72839136 -14.54563904 48.99006653 C-13.35004133 43.14912669 -12.63596752 37.42274807 -12.2578125 31.4765625 C-12.19642593 30.60524185 -12.13503937 29.7339212 -12.0717926 28.8361969 C-11.87902242 26.09300003 -11.69457926 23.34934265 -11.51171875 20.60546875 C-11.32460597 17.82952214 -11.13558901 15.0537639 -10.94093323 12.27833557 C-10.82059339 10.56033675 -10.70468502 8.8420207 -10.59361267 7.12339783 C-10.01081697 -1.24301786 -7.64481245 0.01007155 0 0 Z " fill="#78D0B0" transform="translate(331.07421875,176.83203125)"/>
<path d="M0 0 C4.83325506 4.68257804 7.60709891 8.80066257 8.4375 15.5625 C8.13535719 26.16083444 0.64864628 37.2220101 -3.8125 46.75 C-4.41623884 48.04416672 -5.01975565 49.33843705 -5.62304688 50.6328125 C-7.07948457 53.75640175 -8.5388833 56.87859619 -10 60 C-8.70900391 59.97905273 -7.41800781 59.95810547 -6.08789062 59.93652344 C-1.27224941 59.86381354 3.54334381 59.81808775 8.359375 59.78027344 C10.43888525 59.76022841 12.51833963 59.73298487 14.59765625 59.69824219 C17.59649487 59.64941052 20.59458463 59.62695972 23.59375 59.609375 C24.51490601 59.58872986 25.43606201 59.56808472 26.38513184 59.54681396 C32.41632264 59.54474405 36.97911308 60.54084354 42 64 C46.25574085 68.58310553 47.35983144 71.56406444 47.28125 77.68359375 C46.69095468 82.54533158 43.81350402 85.29742834 40.25 88.375 C39.5075 88.91125 38.765 89.4475 38 90 C38.86625 90.226875 39.7325 90.45375 40.625 90.6875 C45.68088876 92.65367896 48.95677729 95.43516593 52 100 C52.69817723 105.1713825 52.60610225 109.66657505 50.4375 114.4375 C47.02582743 118.02413014 43.41313327 119.79343336 39 122 C39.763125 122.556875 40.52625 123.11375 41.3125 123.6875 C44.61090595 126.52566326 46.6398662 128.66791404 47.3203125 133.07421875 C47.55227266 137.62836993 47.07797636 141.47508447 44.5546875 145.42578125 C41.36997333 148.65050439 37.13443425 150.28783925 33 152 C33.72316406 152.56267578 33.72316406 152.56267578 34.4609375 153.13671875 C41.17737789 158.57840617 41.17737789 158.57840617 42 163 C42.23481866 168.17579468 41.52625338 171.88873324 38.1875 175.9375 C34.7741979 179.64913698 32.23706338 180.91677832 27.12483215 181.26069641 C25.52835271 181.2756147 23.93174698 181.27946768 22.33520508 181.2746582 C21.02465149 181.2823246 21.02465149 181.2823246 19.68762207 181.29014587 C16.7981888 181.30404872 13.90899401 181.3030839 11.01953125 181.30078125 C9.00656547 181.30466916 6.9936005 181.30900402 4.9806366 181.31376648 C0.75814152 181.32123118 -3.46426996 181.32093658 -7.68676758 181.31567383 C-13.08240774 181.30989344 -18.47770304 181.3267744 -23.87328625 181.3500185 C-28.03330976 181.36479797 -32.19325116 181.36562156 -36.35329628 181.36250877 C-38.34149163 181.36302035 -40.32969177 181.36822717 -42.31786156 181.37832069 C-45.1082081 181.3907429 -47.89789537 181.3838578 -50.68823242 181.37231445 C-51.90664574 181.38378006 -51.90664574 181.38378006 -53.14967346 181.39547729 C-59.60087447 181.33688355 -66.1099937 180.32806063 -71.25 176.1875 C-71.8275 175.795625 -72.405 175.40375 -73 175 C-75.52363988 175.62533375 -75.52363988 175.62533375 -78 177 C-84.00495298 179.8022684 -89.9217765 179.3681087 -96.4375 179.375 C-97.65244141 179.39949219 -98.86738281 179.42398438 -100.11914062 179.44921875 C-111.28583724 179.48593118 -111.28583724 179.48593118 -116 175 C-116.53459839 174.49649017 -117.06919678 173.99298035 -117.61999512 173.47421265 C-119.81297674 169.5424129 -119.43373879 165.61464196 -119.41992188 161.18603516 C-119.42839142 160.19047104 -119.43686096 159.19490692 -119.44558716 158.16917419 C-119.46900025 154.87567393 -119.4699782 151.58263972 -119.46875 148.2890625 C-119.4758494 145.99986585 -119.48354808 143.71067098 -119.49182129 141.42147827 C-119.50527636 136.62143001 -119.5068304 131.82154624 -119.50097656 127.02148438 C-119.49508231 120.87205423 -119.52565677 114.72341409 -119.56609344 108.57413673 C-119.59195196 103.84546663 -119.59484945 99.11698713 -119.59120178 94.38825607 C-119.59289502 92.12125031 -119.60255707 89.85423594 -119.62034607 87.58729935 C-119.64249628 84.41524781 -119.6328525 81.24480025 -119.61523438 78.07275391 C-119.62849762 77.13748367 -119.64176086 76.20221344 -119.65542603 75.23860168 C-119.59892012 70.85716055 -119.39627769 67.9152066 -116.58654785 64.43295288 C-111.46749882 59.61788438 -105.53406407 60.77773771 -98.87915039 60.75976562 C-96.70615017 60.7500831 -94.53410537 60.71907174 -92.36132812 60.6875 C-90.97396394 60.68096731 -89.586593 60.67571788 -88.19921875 60.671875 C-86.93940186 60.6625293 -85.67958496 60.65318359 -84.3815918 60.64355469 C-79.74352276 61.13244219 -77.14259336 62.62100801 -74.1875 66.1875 C-73.795625 66.785625 -73.40375 67.38375 -73 68 C-72.85304688 67.3709375 -72.70609375 66.741875 -72.5546875 66.09375 C-69.70645085 55.22461704 -63.60106059 48.93613944 -54.80078125 42.35546875 C-54.04152344 41.78441406 -53.28226562 41.21335937 -52.5 40.625 C-51.46359375 39.87089844 -51.46359375 39.87089844 -50.40625 39.1015625 C-43.20628995 32.8132857 -39.17328215 25.99509353 -35.3125 17.3125 C-31.17239152 8.13225946 -28.23261834 1.61630917 -19 -3 C-12.58258156 -5.06182119 -5.53517334 -3.69011556 0 0 Z " fill="#FEDCCD" transform="translate(383,217)"/>
<path d="M0 0 C2.17300022 -0.00968252 4.34504502 -0.04069388 6.51782227 -0.07226562 C7.90518645 -0.07879831 9.29255739 -0.08404774 10.67993164 -0.08789062 C11.93974854 -0.09723633 13.19956543 -0.10658203 14.49755859 -0.11621094 C19.25454485 0.38521134 21.58057343 2.00537715 24.99154663 5.24897766 C27.66219578 9.4811144 27.43314982 12.98307851 27.38085938 17.89233398 C27.38626236 18.85878342 27.39166534 19.82523285 27.39723206 20.82096863 C27.40972671 24.01181783 27.39322169 27.20176599 27.37524414 30.39257812 C27.37539912 32.61308337 27.37688798 34.83358888 27.37965393 37.05409241 C27.3810383 41.70700037 27.36847411 46.35960024 27.34570312 51.01245117 C27.31733525 56.97224707 27.32005099 62.93153038 27.33279324 68.8913641 C27.33975389 73.47677475 27.33195636 78.06206727 27.31953621 82.64746284 C27.31502433 84.84466664 27.3146826 87.04188313 27.31860161 89.23908806 C27.32151712 92.31256904 27.30498935 95.38534802 27.28320312 98.45874023 C27.28770477 99.36438721 27.29220642 100.27003418 27.29684448 101.203125 C27.23693114 106.29904836 26.69845503 109.82016531 23.87915039 114.24023438 C18.00594069 119.73452732 10.04447543 118.49333055 2.50415039 118.55273438 C0.6749707 118.59624023 0.6749707 118.59624023 -1.19116211 118.640625 C-12.4288702 118.72036856 -12.4288702 118.72036856 -17.12084961 114.24023438 C-17.65536743 113.73664398 -18.18988525 113.23305359 -18.74060059 112.71420288 C-20.93404836 108.78265096 -20.55458832 104.85484949 -20.54077148 100.42626953 C-20.54924103 99.43070541 -20.55771057 98.4351413 -20.56643677 97.40940857 C-20.58984986 94.1159083 -20.59082781 90.8228741 -20.58959961 87.52929688 C-20.59669901 85.24010022 -20.60439768 82.95090536 -20.6126709 80.66171265 C-20.62612597 75.86166438 -20.62768001 71.06178061 -20.62182617 66.26171875 C-20.61593192 60.11228861 -20.64650638 53.96364846 -20.68694305 47.81437111 C-20.71280156 43.08570101 -20.71569905 38.35722151 -20.71205139 33.62849045 C-20.71374463 31.36148469 -20.72340668 29.09447032 -20.74119568 26.82753372 C-20.76334589 23.65548218 -20.75370211 20.48503463 -20.73608398 17.31298828 C-20.74934723 16.37771805 -20.76261047 15.44244781 -20.77627563 14.47883606 C-20.71976973 10.09739492 -20.5171273 7.15544097 -17.70739746 3.67318726 C-12.58834843 -1.14188125 -6.65491368 0.01797209 0 0 Z " fill="#F0F3F5" transform="translate(284.120849609375,277.759765625)"/>
<path d="M0 0 C-2 2 -2 2 -5.125 3.5625 C-14.04237476 8.62622846 -18.31450491 16.39586369 -21 26 C-21.80959552 30.31632472 -22.24662515 34.62663491 -22.625 39 C-22.74270752 40.28704834 -22.86041504 41.57409668 -22.98168945 42.90014648 C-27.12383596 89.96464239 -27.95509346 137.87032284 -24.16143799 184.97790527 C-23.99349068 187.08153267 -23.83388714 189.18568716 -23.67529297 191.29003906 C-23.4036446 194.8540757 -23.11066097 198.41576161 -22.80020142 201.97662354 C-22.63227698 203.91595921 -22.47447767 205.85616356 -22.31713867 207.79638672 C-21.37423112 217.70401316 -19.68354494 227.09510058 -12.5625 234.5 C-11.82128906 235.2940625 -11.08007812 236.088125 -10.31640625 236.90625 C-8.01315982 238.98810512 -5.67844476 240.45056459 -3 242 C-3 242.33 -3 242.66 -3 243 C-13.17024505 243.56501361 -22.2940072 240.84977138 -30 234 C-35.19397891 227.81480374 -38.87195584 221.77017371 -39.78125 213.66015625 C-39.90113281 212.59345703 -40.02101562 211.52675781 -40.14453125 210.42773438 C-40.26183594 209.31720703 -40.37914062 208.20667969 -40.5 207.0625 C-40.61730469 206.04865234 -40.73460937 205.03480469 -40.85546875 203.99023438 C-41.29102075 199.99767438 -41.65803601 196.00142716 -42 192 C-42.08438324 191.0216217 -42.16876648 190.04324341 -42.25570679 189.03521729 C-44.03656205 167.6477941 -44.36141689 146.34488563 -44.31745148 124.89404678 C-44.31243422 122.21487331 -44.31095647 119.53571462 -44.30999756 116.85653687 C-44.23907843 23.92299287 -44.23907843 23.92299287 -30.828125 9.59765625 C-21.3296919 1.29667519 -12.22394562 -0.40446879 0 0 Z " fill="#EDC932" transform="translate(44,9)"/>
<path d="M0 0 C5.94 0 11.88 0 18 0 C17.98428955 2.52624023 17.9685791 5.05248047 17.95239258 7.65527344 C17.90162626 16.20848987 17.86913823 24.76171493 17.84456348 33.3150444 C17.82921424 38.47720353 17.80857676 43.63920259 17.77368164 48.80126953 C17.62856173 70.88475377 17.83605262 92.85328017 19.38671875 114.890625 C19.44958384 115.78451683 19.51244892 116.67840866 19.57721901 117.59938812 C20.23242634 126.69315136 21.0245732 135.77390556 21.96411133 144.84277344 C22.03488482 145.56848667 22.10565832 146.29419991 22.17857647 147.04190445 C23.29363857 157.26134356 27.22039429 166.15789434 35 173 C37.28808373 174.56999118 39.49804742 175.77455384 42 177 C42 177.33 42 177.66 42 178 C31.8402367 178.79338716 22.83987507 176.31205921 14.8515625 169.8359375 C-5.5340944 149.62231146 -1.04133493 104.16794184 -1.21420288 76.99124146 C-1.24570042 69.13313166 -1.22586334 61.27531228 -1.19561768 53.41723633 C-1.18466363 49.81805024 -1.18515353 46.21890128 -1.18575573 42.61970139 C-1.18548262 39.10214189 -1.17998309 35.58460626 -1.17275429 32.06705475 C-1.16961435 30.41348702 -1.16761142 28.75991667 -1.16686058 27.10634613 C-1.15818172 18.01999223 -0.90364479 9.05177151 0 0 Z " fill="#66B49D" transform="translate(177,256)"/>
<path d="M0 0 C5.01531809 1.79118503 6.06669974 4.72558233 8.5 9.25 C9.5025395 10.82430032 10.52360554 12.38695002 11.5625 13.9375 C12.02785156 14.64261719 12.49320313 15.34773437 12.97265625 16.07421875 C19.30429454 25.09396946 29.53293112 32.24362341 40.12890625 35.66015625 C57.46656898 38.69374498 72.93501157 36.21276587 87.5 26.25 C95.3388721 20.71667852 100.08446076 12.49190835 104.359375 4.0625 C105.5 2.25 105.5 2.25 108.5 0.25 C111.83466685 0.42864287 114.4860269 0.69395023 117.4375 2.3125 C119.29223456 5.69466302 119.3047187 8.59058575 118.5 12.25 C114.73064096 20.78683495 109.03759494 27.6902061 102.5 34.25 C101.81292969 34.96027344 101.12585938 35.67054688 100.41796875 36.40234375 C87.20397176 49.17505698 69.4449529 53.54822934 51.54980469 53.56469727 C32.77022271 53.24359757 17.25417491 44.34631373 4.5 31.25 C3.81035156 30.55777344 3.12070313 29.86554688 2.41015625 29.15234375 C-2.99185982 23.39570956 -8.64315718 15.93228042 -9.1875 7.8125 C-8.5 4.25 -8.5 4.25 -6.4375 1.6875 C-3.5 0.25 -3.5 0.25 0 0 Z " fill="#253B6A" transform="translate(106.5,145.75)"/>
<path d="M0 0 C6.45210701 3.53419507 9.55677102 9.46408899 12.25 16.0625 C15.20220242 27.71315598 12.84279103 39.4091465 7.33984375 49.79296875 C5.10258655 53.47824665 3.04819369 55.30023325 -1.03515625 56.6953125 C-4.52911954 57.45044007 -6.94285966 57.52573348 -10.18359375 55.9140625 C-16.16384005 51.279089 -19.31552131 45.29160914 -21 38 C-21.35809351 34.76666743 -21.47462438 31.56438601 -21.5 28.3125 C-21.50644531 27.52907227 -21.51289063 26.74564453 -21.51953125 25.93847656 C-21.35798656 18.54159376 -19.6931085 11.44110726 -15 5.5625 C-14.2575 4.60537109 -14.2575 4.60537109 -13.5 3.62890625 C-9.54609515 -0.6647873 -5.4942673 -1.03303195 0 0 Z " fill="#233A6A" transform="translate(220,69)"/>
<path d="M0 0 C6.17422228 2.7166578 9.20340187 8.08797334 12 14 C14.99142465 24.44279151 14.31316839 37.92613647 9.5703125 47.6015625 C6.81660843 51.80746872 3.48252133 54.75873934 -1 57 C-4.96065449 57.55264946 -6.89153011 57.05423494 -10.5 55.25 C-16.00571109 50.98001518 -19.19026606 43.71986865 -20.64453125 37.0390625 C-21.91597934 26.16887989 -21.88017434 15.73877081 -15.24609375 6.578125 C-10.56259163 1.06352125 -7.48407534 -0.9390132 0 0 Z " fill="#23396A" transform="translate(111,69)"/>
<path d="M0 0 C0.33 0 0.66 0 1 0 C1.07453622 4.1625612 1.12878254 8.3247618 1.16479492 12.48779297 C1.17981825 13.90192437 1.20024305 15.31600968 1.22631836 16.72998047 C1.26298954 18.77062397 1.27979036 20.81064792 1.29296875 22.8515625 C1.3086792 24.07697754 1.32438965 25.30239258 1.34057617 26.56494141 C0.88085677 31.20168117 -0.51443665 34.61027945 -3.9375 37.8125 C-9.7719624 41.17173593 -16.86020029 40.26117542 -23.375 40.3125 C-24.59445312 40.34150391 -25.81390625 40.37050781 -27.0703125 40.40039062 C-38.30802059 40.48013419 -38.30802059 40.48013419 -43 36 C-46.35303881 32.48803509 -46.35359287 29.81597276 -46.29296875 25.046875 C-46.28872391 24.38665344 -46.28447906 23.72643188 -46.28010559 23.04620361 C-46.26337435 20.94704609 -46.22573551 18.84886504 -46.1875 16.75 C-46.17244584 15.32293058 -46.15875871 13.89584604 -46.14648438 12.46875 C-46.11349001 8.97885183 -46.06174743 5.4895213 -46 2 C-44.8553125 3.175625 -44.8553125 3.175625 -43.6875 4.375 C-37.87279434 10.05447994 -33.08594889 9.37243711 -25.28588867 9.37060547 C-23.20472463 9.37496393 -21.12570865 9.41124729 -19.04492188 9.44921875 C-17.7109447 9.45509049 -16.37695752 9.45905749 -15.04296875 9.4609375 C-13.83664795 9.46915527 -12.63032715 9.47737305 -11.38745117 9.48583984 C-7.32215744 8.9027815 -5.17016185 7.56783987 -2 5 C-0.58809436 2.39562767 -0.58809436 2.39562767 0 0 Z " fill="#CFE2E6" transform="translate(310,356)"/>
<path d="M0 0 C0.99 1.485 0.99 1.485 2 3 C1.12988281 3.14695313 1.12988281 3.14695313 0.2421875 3.296875 C-7.47251375 4.77361649 -12.36515914 7.51294578 -17 14 C-18.5597225 17.02918915 -19.92780079 20.13775539 -21.3125 23.25 C-28.09251105 37.9506756 -36.8836327 47.55563052 -51.203125 55.359375 C-59.96662388 60.4999749 -64.76439571 68.23106264 -67.41796875 77.9453125 C-68.3511271 82.84282815 -68.84092215 87.79027851 -69.26660156 92.75585938 C-69.33459961 93.50416016 -69.40259766 94.25246094 -69.47265625 95.0234375 C-69.55398804 96.02769775 -69.55398804 96.02769775 -69.63696289 97.05224609 C-70.05525674 99.29646151 -70.90112617 101.00976499 -72 103 C-72.12452146 97.48657268 -72.21476997 91.97398153 -72.2746582 86.45947266 C-72.29964898 84.58758263 -72.33365373 82.71578865 -72.37719727 80.84423828 C-72.64792035 68.90057292 -72.5669792 60.28685895 -65.078125 50.484375 C-61.73630967 47.31393482 -58.47497919 44.56944599 -54.5625 42.125 C-43.660647 34.98754752 -39.0251528 25.72698915 -33.80517578 14.11157227 C-30.13066183 5.94651243 -27.08541309 1.04270654 -19 -3 C-12.50350365 -5.08722774 -5.67343262 -3.59778654 0 0 Z " fill="#FDCBBE" transform="translate(383,217)"/>
<path d="M0 0 C2.47650932 3.71476399 2.25481093 5.36808311 1.67578125 9.64453125 C0.37215636 14.18837985 -2.71518405 17.43414042 -6.56269836 20.07096863 C-10.20320908 21.45862973 -13.82180277 21.28623497 -17.66479492 21.2746582 C-18.97534851 21.2823246 -18.97534851 21.2823246 -20.31237793 21.29014587 C-23.2018112 21.30404872 -26.09100599 21.3030839 -28.98046875 21.30078125 C-30.99343453 21.30466916 -33.0063995 21.30900402 -35.0193634 21.31376648 C-39.24185848 21.32123118 -43.46426996 21.32093658 -47.68676758 21.31567383 C-53.08240774 21.30989344 -58.47770304 21.3267744 -63.87328625 21.3500185 C-68.03330976 21.36479797 -72.19325116 21.36562156 -76.35329628 21.36250877 C-78.34149163 21.36302035 -80.32969177 21.36822717 -82.31786156 21.37832069 C-85.1082081 21.3907429 -87.89789537 21.3838578 -90.68823242 21.37231445 C-91.50050797 21.37995819 -92.31278351 21.38760193 -93.14967346 21.39547729 C-101.10596291 21.32321342 -108.0744313 19.54327395 -114 14 C-113.67 12.68 -113.34 11.36 -113 10 C-111.10652077 9.99120064 -111.10652077 9.99120064 -109.17478943 9.98222351 C-97.27148335 9.92498011 -85.36835967 9.85220972 -73.46523952 9.76428509 C-67.34589902 9.71958117 -61.2266251 9.68032484 -55.10717773 9.65356445 C-49.20021532 9.62753206 -43.29350913 9.58712949 -37.3867054 9.53681374 C-35.13453422 9.52014471 -32.88231873 9.50863067 -30.63009453 9.50238609 C-27.47244357 9.49274569 -24.31544818 9.464686 -21.15795898 9.43237305 C-19.76504639 9.43452568 -19.76504639 9.43452568 -18.34399414 9.4367218 C-12.81143442 9.35679239 -8.90781196 8.6063959 -4 6 C-2.41241506 4.50410959 -2.41241506 4.50410959 -1.5625 2.8125 C-1.046875 1.884375 -0.53125 0.95625 0 0 Z " fill="#FECBBE" transform="translate(423,377)"/>
<path d="M0 0 C0.66 0 1.32 0 2 0 C2.37497746 4.68721819 2.48459497 8.04875802 0.3125 12.3125 C-3.4352841 16.66803287 -6.6869388 19.7405434 -12.59375 20.203125 C-13.5528125 20.21859375 -14.511875 20.2340625 -15.5 20.25 C-16.4590625 20.27578125 -17.418125 20.3015625 -18.40625 20.328125 C-21 20 -21 20 -22.81640625 18.671875 C-24.67432281 16.04749121 -24.45409248 14.11377698 -24 11 C-20.88981278 7.88981278 -18.41847599 7.65536144 -14.125 7.5625 C-8.758364 7.24181078 -6.00077124 6.57963742 -2 3 C-1.34 2.01 -0.68 1.02 0 0 Z " fill="#FDCBBE" transform="translate(428,288)"/>
<path d="M0 0 C0.66 0 1.32 0 2 0 C2.44477448 5.44848735 2.42940189 9.84877054 -0.69140625 14.4921875 C-4.03841642 18.3487425 -7.07296688 19.78033819 -12.015625 20.34375 C-20.19988539 20.58097494 -20.19988539 20.58097494 -22.83984375 18.6640625 C-24.62303726 16.1063506 -24.32172839 14.02424687 -24 11 C-21.23721539 8.23721539 -18.46010228 8.51374077 -14.75 8.1875 C-8.72091409 7.53678682 -5.00700676 6.7141256 -1 2 C-0.67 1.34 -0.34 0.68 0 0 Z " fill="#FDCBBE" transform="translate(428,348)"/>
<path d="M0 0 C0.33 0 0.66 0 1 0 C1.61759201 9.64129757 1.61759201 9.64129757 -0.5625 14.4375 C-4.85415741 18.94924241 -9.63136869 21.73464036 -16 22 C-22.53846154 20.69230769 -22.53846154 20.69230769 -25 17 C-24.75 13.875 -24.75 13.875 -24 11 C-21.52211226 9.76105613 -19.64086855 9.82232646 -16.875 9.6875 C-11.58758992 9.23647421 -7.29814175 8.21040563 -3 5 C-1.06305417 2.41796279 -1.06305417 2.41796279 0 0 Z " fill="#FDCBBE" transform="translate(434,317)"/>
</svg>
