<?xml version="1.0" encoding="UTF-8"?>
<svg xmlns="http://www.w3.org/2000/svg" width="376" height="109" viewBox="0 0 376 109" fill="none">
  <path d="M144.105 40.8749C144.445 41.7265 144.105 42.4077 143.254 42.578L136.108 44.6218C135.258 44.9624 134.747 44.6218 134.577 43.7702C133.386 40.1937 131.004 38.1499 126.751 38.1499C119.946 38.1499 117.734 42.0671 117.734 47.5171V59.7796C117.734 65.0593 119.946 69.1468 126.751 69.1468C133.556 69.1468 135.258 66.5921 135.258 60.9718V59.439H127.942C127.432 59.439 126.921 59.0983 126.921 58.4171V51.6046C126.921 50.9233 127.261 50.5827 127.942 50.5827H144.105C144.785 50.5827 145.126 50.9233 145.126 51.6046V61.8233C145.126 71.5312 137.98 78.8546 126.921 78.8546C115.862 78.8546 107.696 71.0202 107.696 60.2905V47.3468C107.696 36.6171 113.821 28.7827 126.921 28.7827C140.022 28.7827 142.403 34.914 144.275 40.8749M180.344 53.1374V76.9812C180.344 77.4921 180.003 78.003 179.323 78.003H172.007C171.327 78.003 170.986 77.6624 170.986 76.9812V73.064C168.775 76.6405 165.372 78.6843 160.948 78.6843C154.143 78.6843 149.719 74.2562 149.719 67.4437C149.719 60.6312 153.803 56.8843 164.011 56.203C166.223 56.0327 168.434 56.0327 170.646 56.203V53.478C170.646 49.9015 168.775 48.539 165.712 48.539C162.65 48.539 161.629 49.9015 160.778 51.9452C160.438 52.7968 160.268 52.7968 159.417 52.6265L152.101 50.753C151.421 50.5827 151.251 50.2421 151.421 49.5608C152.442 44.2812 157.375 40.5343 166.052 40.5343C174.729 40.5343 180.344 44.9624 180.344 53.1374ZM170.646 65.5702V62.164C168.604 62.164 166.733 62.164 164.861 62.3343C161.118 62.8452 159.247 63.8671 159.247 66.7624C159.247 69.6577 160.948 70.6796 163.841 70.6796C166.733 70.6796 169.625 68.9765 170.816 65.5702M206.545 40.5343C211.138 40.5343 214.201 43.2593 215.562 47.1765C218.284 43.2593 221.517 40.5343 226.11 40.5343C230.704 40.5343 236.148 45.6437 236.148 53.1374V76.8108C236.148 77.3218 235.638 77.8327 234.957 77.8327H227.301C226.621 77.8327 226.11 77.4921 226.11 76.8108V54.8405C226.11 51.6046 224.579 49.5608 222.027 49.5608C219.475 49.5608 217.263 51.7749 216.413 55.1812V76.8108C216.413 77.4921 215.902 77.8327 215.562 77.8327H207.395C206.885 77.8327 206.545 77.4921 206.545 76.8108V54.8405C206.545 51.6046 205.013 49.5608 202.461 49.5608C199.909 49.5608 197.698 51.9452 196.847 55.3515V76.8108C196.847 77.3218 196.507 77.8327 195.826 77.8327H187.83C187.149 77.8327 186.809 77.4921 186.809 76.8108V42.0671C186.809 41.5562 187.149 41.2155 187.83 41.2155H195.486C196.166 41.2155 196.507 41.7265 196.507 42.0671V46.1546C198.718 43.089 201.781 40.1937 206.545 40.1937M277.832 41.3858C278.002 42.2374 277.832 42.9187 276.981 43.089L270.005 45.1327C269.155 45.4733 268.644 45.1327 268.474 44.2812C267.453 41.0452 265.752 38.3202 260.818 38.3202C255.884 38.3202 252.822 42.2374 252.822 47.6874V59.9499C252.822 65.2296 255.033 69.3171 260.818 69.3171C266.603 69.3171 267.964 66.4218 268.814 62.8452C268.984 61.9937 269.495 61.653 270.346 61.9937L277.321 64.2077C278.172 64.5483 278.342 65.0593 278.172 65.9108C276.47 73.064 271.366 78.8546 260.648 78.8546C249.929 78.8546 242.613 71.0202 242.613 60.2905V47.3468C242.613 36.6171 248.738 28.7827 260.648 28.7827C272.557 28.7827 275.96 34.403 277.832 41.3858ZM312.879 53.1374V76.9812C312.879 77.4921 312.539 78.003 311.859 78.003H304.543C303.862 78.003 303.522 77.6624 303.522 76.9812V73.064C301.31 76.6405 297.908 78.6843 293.484 78.6843C286.679 78.6843 282.255 74.2562 282.255 67.4437C282.255 60.6312 286.338 56.8843 296.546 56.203C298.758 56.0327 300.97 56.0327 303.182 56.203V53.478C303.182 49.9015 301.31 48.539 298.248 48.539C295.185 48.539 294.165 49.9015 293.314 51.9452C292.974 52.7968 292.804 52.7968 291.953 52.6265L284.637 50.753C283.956 50.5827 283.786 50.2421 283.956 49.5608C284.977 44.2812 289.911 40.5343 298.588 40.5343C307.265 40.5343 312.879 44.9624 312.879 53.1374ZM303.182 65.5702V62.164C301.14 62.164 299.269 62.164 297.397 62.3343C293.654 62.8452 291.783 63.8671 291.783 66.7624C291.783 69.6577 293.484 70.6796 296.376 70.6796C299.269 70.6796 302.161 68.9765 303.352 65.5702M341.122 42.0671V49.2202C341.122 50.0718 340.782 50.4124 339.931 50.4124H338.91C333.636 50.4124 330.574 52.7968 329.553 56.714V76.9812C329.553 77.6624 329.042 78.003 328.702 78.003H320.365C320.025 78.003 319.515 77.6624 319.515 76.9812V42.2374C319.515 41.7265 319.855 41.3858 320.536 41.3858H328.022C328.872 41.3858 329.042 41.8968 329.042 42.4077V47.3468C330.744 44.1108 333.976 40.8749 339.591 40.8749C345.205 40.8749 341.122 41.0452 341.122 42.0671ZM354.222 62.6749V64.0374C354.222 67.9546 356.264 70.5093 360.858 70.5093C365.451 70.5093 366.642 68.8062 367.833 66.5921C368.344 65.5702 368.684 65.3999 369.705 65.9108L374.979 68.6358C376 69.1468 376.17 69.6577 375.66 70.6796C373.448 75.789 367.833 78.6843 360.858 78.6843C350.309 78.6843 344.695 72.3827 344.695 63.8671V55.3515C344.695 47.0062 349.969 40.5343 360.688 40.5343C371.406 40.5343 376 47.0062 376 55.1812V60.9718C376 61.9937 375.66 62.6749 374.299 62.6749H354.222ZM354.222 55.0108V56.203H366.983V55.0108C366.983 51.4343 364.941 48.7093 360.688 48.7093C356.434 48.7093 354.222 51.4343 354.222 55.0108Z" fill="#656565"></path>
  <path d="M45.7665 0H1.53122C0.680543 0 0 0.68125 0 1.3625V65.9109C0 88.9031 18.7149 107.638 41.6833 107.638H45.7665C68.7348 107.638 87.4498 88.9031 87.4498 65.9109V41.7266C87.4498 18.7344 68.7348 0 45.7665 0ZM74.0091 66.5922C74.0091 82.2609 62.4398 94.1828 44.5756 94.1828C26.7113 94.1828 13.4407 81.5797 13.4407 64.3781V43.4297C13.4407 26.2281 23.3086 13.625 44.5756 13.625C65.8425 13.625 69.5855 23.5031 72.648 33.2109C73.1584 34.7437 72.648 35.5953 71.2869 35.9359L59.7176 39.3422C58.3566 39.8531 57.5059 39.3422 57.1656 37.9797C55.2941 32.1891 51.5511 28.9531 44.4054 28.9531C33.5167 28.9531 29.9439 35.425 29.9439 43.9406V63.8672C29.9439 72.5531 33.5167 78.8547 44.4054 78.8547C55.2941 78.8547 58.0163 74.7672 58.0163 65.5703V63.0156H46.1068C45.086 63.0156 44.5756 62.5047 44.5756 61.3125V50.2422C44.5756 49.2203 45.2561 48.5391 46.1068 48.5391H72.1376C73.1584 48.5391 73.8389 49.05 73.8389 50.0719V66.4219L74.0091 66.5922Z" fill="#656565"></path>
  <path d="M109.908 96.2267V86.8595C109.908 86.8595 109.908 86.6892 110.078 86.6892H115.522C115.522 86.6892 115.692 86.6892 115.692 86.8595V88.3923C115.692 88.3923 115.692 88.5626 115.522 88.5626H111.949V90.947H115.182C115.182 90.947 115.352 90.947 115.352 91.1173V92.4798C115.352 92.4798 115.352 92.6501 115.182 92.6501H111.949V96.0564C111.949 96.0564 111.949 96.2267 111.779 96.2267H110.078C110.078 96.2267 109.908 96.2267 109.908 96.0564V96.2267ZM116.713 93.672V92.1392C116.713 90.0954 117.904 89.0735 119.946 89.0735C121.987 89.0735 123.178 90.2657 123.178 92.1392V93.672C123.178 95.5454 121.987 96.7376 119.946 96.7376C117.904 96.7376 116.713 95.7157 116.713 93.672ZM119.946 94.8642C120.796 94.8642 121.137 94.3532 121.137 93.5017V91.9689C121.137 91.1173 120.626 90.6064 119.946 90.6064C119.265 90.6064 118.755 91.1173 118.755 91.9689V93.5017C118.755 94.3532 119.095 94.8642 119.946 94.8642ZM131.005 89.4142V96.397C131.005 96.397 131.005 96.5673 130.834 96.5673H129.303C129.303 96.5673 129.133 96.5673 129.133 96.397V95.7157C128.623 96.397 127.942 96.7376 127.091 96.7376C125.56 96.7376 124.88 95.7157 124.88 93.8423V89.4142C124.88 89.4142 124.88 89.2439 125.05 89.2439H126.751C126.751 89.2439 126.921 89.2439 126.921 89.4142V93.8423C126.921 94.5235 127.262 95.0345 127.942 95.0345C128.623 95.0345 128.963 94.5235 129.303 94.0126V89.5845C129.303 89.5845 129.303 89.4142 129.473 89.4142H131.175C131.175 89.4142 131.345 89.4142 131.345 89.5845L131.005 89.4142ZM132.706 96.2267V89.2439C132.706 89.2439 132.706 89.0735 132.876 89.0735H134.407C134.407 89.0735 134.577 89.0735 134.577 89.2439V89.9251C135.088 89.2438 135.768 88.9032 136.619 88.9032C138.15 88.9032 138.831 89.9251 138.831 91.7985V96.2267C138.831 96.2267 138.831 96.397 138.661 96.397H136.959C136.959 96.397 136.789 96.397 136.789 96.2267V91.7985C136.789 91.1173 136.449 90.6064 135.768 90.6064C135.088 90.6064 134.748 91.1173 134.407 91.6282V96.0564C134.407 96.0564 134.407 96.2267 134.237 96.2267H132.536C132.536 96.2267 132.366 96.2267 132.366 96.0564L132.706 96.2267ZM140.532 93.5017V91.9689C140.532 90.0954 141.553 88.9032 143.084 88.9032C144.615 88.9032 144.615 89.2439 144.956 89.7548V86.3485C144.956 86.3485 144.956 86.1782 145.126 86.1782H146.827C146.827 86.1782 146.997 86.1782 146.997 86.3485V96.0564C146.997 96.0564 146.997 96.2267 146.827 96.2267H145.296C145.296 96.2267 145.126 96.2267 145.126 96.0564V95.3751C144.786 96.0564 144.105 96.397 143.084 96.397C141.553 96.397 140.532 95.2048 140.532 93.3313V93.5017ZM143.765 94.8642C144.615 94.8642 145.126 94.3532 145.126 93.5017V91.9689C145.126 91.1173 144.615 90.6064 143.765 90.6064C142.914 90.6064 142.574 91.1173 142.574 91.9689V93.5017C142.574 94.3532 143.084 94.8642 143.765 94.8642ZM148.699 93.672V92.1392C148.699 90.0954 149.89 89.0735 151.761 89.0735C153.633 89.0735 154.824 90.2657 154.824 92.1392V93.3313C154.824 93.3313 154.824 93.5017 154.653 93.5017H150.4C150.4 94.5235 150.91 95.0345 151.761 95.0345C152.612 95.0345 152.782 94.6939 152.952 94.3532H153.122L154.483 94.6938V94.8642C154.143 96.0564 153.122 96.7376 151.591 96.7376C150.06 96.7376 148.358 95.7157 148.358 93.672H148.699ZM153.122 92.1392C153.122 91.1173 152.612 90.6064 151.931 90.6064C151.251 90.6064 150.57 91.1173 150.57 91.9689C150.57 92.1392 153.122 92.1392 153.122 92.1392ZM156.525 96.2267V89.2439C156.525 89.2439 156.525 89.0735 156.695 89.0735H158.226C158.226 89.0735 158.396 89.0735 158.396 89.2439V90.0954C158.737 89.4142 159.417 88.9032 160.608 88.9032C160.608 88.9032 160.778 88.9032 160.778 89.0735V90.6064C160.778 90.6064 160.778 90.7767 160.608 90.7767C159.417 90.7767 158.737 90.947 158.396 91.7985V96.0564C158.396 96.0564 158.396 96.2267 158.226 96.2267H156.525C156.525 96.2267 156.355 96.2267 156.355 96.0564L156.525 96.2267ZM164.862 93.672V92.1392C164.862 90.0954 166.053 89.0735 168.094 89.0735C170.136 89.0735 171.327 90.2657 171.327 92.1392V93.672C171.327 95.5454 170.136 96.7376 168.094 96.7376C166.053 96.7376 164.862 95.7157 164.862 93.672ZM168.094 94.8642C168.945 94.8642 169.285 94.3532 169.285 93.5017V91.9689C169.285 91.1173 168.775 90.6064 168.094 90.6064C167.414 90.6064 166.903 91.1173 166.903 91.9689V93.5017C166.903 94.3532 167.243 94.8642 168.094 94.8642ZM175.75 86.3485H176.771C176.771 86.3485 176.941 86.3485 176.941 86.5188V87.711C176.941 87.711 176.941 87.8813 176.771 87.8813H176.091C175.58 87.8813 175.41 88.0517 175.41 88.5626V89.0735H176.771C176.771 89.0735 176.941 89.0735 176.941 89.2439V90.436C176.941 90.436 176.941 90.6064 176.771 90.6064H175.41V96.0564C175.41 96.0564 175.41 96.2267 175.24 96.2267H173.538C173.538 96.2267 173.368 96.2267 173.368 96.0564V90.6064H172.348C172.348 90.6064 172.177 90.6063 172.177 90.436V89.2439C172.177 89.2439 172.177 89.0735 172.348 89.0735H173.368V88.5626C173.368 87.0298 174.219 86.3485 175.75 86.3485ZM181.535 94.3532V90.7767H180.684C180.684 90.7767 180.514 90.7767 180.514 90.6064V89.4142C180.514 89.4142 180.514 89.2439 180.684 89.2439H181.535V87.711C181.535 87.711 181.535 87.5407 181.705 87.5407H183.236C183.236 87.5407 183.406 87.5407 183.406 87.711V89.2439H184.767C184.767 89.2439 184.938 89.2439 184.938 89.4142V90.6064C184.938 90.6064 184.938 90.7767 184.767 90.7767H183.406V94.0126C183.406 94.5235 183.747 94.6938 184.087 94.6938H184.767C184.767 94.6938 184.938 94.6939 184.938 94.8642V96.2267C184.938 96.2267 184.938 96.397 184.767 96.397H183.747C182.215 96.397 181.365 95.5454 181.365 94.1829L181.535 94.3532ZM186.639 96.2267V86.5188C186.639 86.5188 186.639 86.3485 186.809 86.3485H188.51C188.51 86.3485 188.681 86.3485 188.681 86.5188V89.9251C189.191 89.2438 189.872 88.9032 190.552 88.9032C192.083 88.9032 192.764 89.9251 192.764 91.7985V96.2267C192.764 96.2267 192.764 96.397 192.594 96.397H190.892C190.892 96.397 190.722 96.397 190.722 96.2267V91.7985C190.722 91.1173 190.382 90.6064 189.701 90.6064C189.021 90.6064 188.681 91.1173 188.34 91.6282V96.0564C188.34 96.0564 188.34 96.2267 188.17 96.2267H186.469C186.469 96.2267 186.299 96.2267 186.299 96.0564L186.639 96.2267ZM194.295 93.672V92.1392C194.295 90.0954 195.486 89.0735 197.357 89.0735C199.229 89.0735 200.42 90.2657 200.42 92.1392V93.3313C200.42 93.3313 200.42 93.5017 200.25 93.5017H195.996C195.996 94.5235 196.507 95.0345 197.357 95.0345C198.208 95.0345 198.378 94.6939 198.548 94.3532H198.719L200.08 94.6938V94.8642C199.739 96.0564 198.719 96.7376 197.187 96.7376C195.656 96.7376 193.955 95.7157 193.955 93.672H194.295ZM198.719 92.1392C198.719 91.1173 198.208 90.6064 197.528 90.6064C196.847 90.6064 196.167 91.1173 196.167 91.9689C196.167 92.1392 198.719 92.1392 198.719 92.1392ZM205.694 96.2267V86.8595C205.694 86.8595 205.694 86.6892 205.864 86.6892H208.416L210.288 91.1173C210.628 92.1392 210.968 93.161 211.309 94.0126V86.8595C211.309 86.8595 211.309 86.6892 211.479 86.6892H213.01C213.01 86.6892 213.18 86.6892 213.18 86.8595V96.2267C213.18 96.2267 213.18 96.397 213.01 96.397H210.628L208.586 91.9689C208.246 90.947 207.736 89.9251 207.566 89.0735V96.397C207.566 96.397 207.566 96.5673 207.396 96.5673H205.864C205.864 96.5673 205.694 96.5673 205.694 96.397V96.2267ZM219.135 96.2267V95.3751C218.624 96.0564 217.944 96.5673 217.093 96.5673C215.732 96.5673 214.881 95.7157 214.881 94.3532C214.881 92.9907 215.732 92.1392 217.944 92.1392H218.965V91.6282C218.965 90.947 218.624 90.6064 217.944 90.6064C217.263 90.6064 217.093 90.947 216.923 91.2876H216.753L215.222 90.947V90.7767C215.562 89.7548 216.413 88.9032 218.114 88.9032C219.815 88.9032 221.006 89.7548 221.006 91.4579V96.2267C221.006 96.2267 221.006 96.397 220.836 96.397H219.305C219.305 96.397 219.135 96.397 219.135 96.2267ZM217.604 95.0345C218.284 95.0345 218.795 94.6939 218.965 94.0126V93.3313H217.944C217.093 93.3313 216.753 93.672 216.753 94.1829C216.753 94.6938 217.093 95.0345 217.604 95.0345ZM223.218 94.3532V90.7767H222.367C222.367 90.7767 222.197 90.7767 222.197 90.6064V89.4142C222.197 89.4142 222.197 89.2439 222.367 89.2439H223.218V87.711C223.218 87.711 223.218 87.5407 223.388 87.5407H224.919C224.919 87.5407 225.09 87.5407 225.09 87.711V89.2439H226.451C226.451 89.2439 226.621 89.2439 226.621 89.4142V90.6064C226.621 90.6064 226.621 90.7767 226.451 90.7767H225.09V94.0126C225.09 94.5235 225.43 94.6938 225.77 94.6938H226.451C226.451 94.6938 226.621 94.6939 226.621 94.8642V96.2267C226.621 96.2267 226.621 96.397 226.451 96.397H225.43C223.899 96.397 223.048 95.5454 223.048 94.1829L223.218 94.3532ZM228.152 88.0517V86.6892C228.152 86.6892 228.152 86.5188 228.322 86.5188H230.024C230.024 86.5188 230.194 86.5189 230.194 86.6892V88.0517C230.194 88.0517 230.194 88.222 230.024 88.222H228.322C228.322 88.222 228.152 88.222 228.152 88.0517ZM228.152 96.2267V89.2439C228.152 89.2439 228.152 89.0735 228.322 89.0735H230.024C230.024 89.0735 230.194 89.0735 230.194 89.2439V96.2267C230.194 96.2267 230.194 96.397 230.024 96.397H228.322C228.322 96.397 228.152 96.397 228.152 96.2267ZM231.725 93.672V92.1392C231.725 90.0954 232.916 89.0735 234.958 89.0735C236.999 89.0735 238.19 90.2657 238.19 92.1392V93.672C238.19 95.5454 236.999 96.7376 234.958 96.7376C232.916 96.7376 231.725 95.7157 231.725 93.672ZM234.958 94.8642C235.808 94.8642 236.148 94.3532 236.148 93.5017V91.9689C236.148 91.1173 235.638 90.6064 234.958 90.6064C234.277 90.6064 233.767 91.1173 233.767 91.9689V93.5017C233.767 94.3532 234.107 94.8642 234.958 94.8642ZM239.721 96.2267V89.2439C239.721 89.2439 239.721 89.0735 239.891 89.0735H241.423C241.423 89.0735 241.593 89.0735 241.593 89.2439V89.9251C242.103 89.2438 242.784 88.9032 243.634 88.9032C245.166 88.9032 245.846 89.9251 245.846 91.7985V96.2267C245.846 96.2267 245.846 96.397 245.676 96.397H243.975C243.975 96.397 243.805 96.397 243.805 96.2267V91.7985C243.805 91.1173 243.464 90.6064 242.784 90.6064C242.103 90.6064 241.763 91.1173 241.423 91.6282V96.0564C241.423 96.0564 241.423 96.2267 241.253 96.2267H239.551C239.551 96.2267 239.381 96.2267 239.381 96.0564L239.721 96.2267ZM251.631 96.2267V95.3751C251.12 96.0564 250.44 96.5673 249.589 96.5673C248.228 96.5673 247.377 95.7157 247.377 94.3532C247.377 92.9907 248.228 92.1392 250.44 92.1392H251.461V91.6282C251.461 90.947 251.12 90.6064 250.44 90.6064C249.759 90.6064 249.589 90.947 249.419 91.2876H249.249L247.718 90.947V90.7767C248.058 89.7548 248.909 88.9032 250.61 88.9032C252.311 88.9032 253.502 89.7548 253.502 91.4579V96.2267C253.502 96.2267 253.502 96.397 253.332 96.397H251.801C251.801 96.397 251.631 96.397 251.631 96.2267ZM250.27 95.0345C250.95 95.0345 251.461 94.6939 251.631 94.0126V93.3313H250.61C249.759 93.3313 249.419 93.672 249.419 94.1829C249.419 94.6938 249.759 95.0345 250.27 95.0345ZM255.374 96.2267V86.5188C255.374 86.5188 255.374 86.3485 255.544 86.3485H257.245C257.245 86.3485 257.415 86.3485 257.415 86.5188V96.2267C257.415 96.2267 257.415 96.397 257.245 96.397H255.544C255.544 96.397 255.374 96.397 255.374 96.2267ZM262.349 92.9907V90.436C262.349 88.0517 263.71 86.6892 266.092 86.6892C268.474 86.6892 269.325 87.8814 269.665 89.2439V89.4142L268.134 89.9251H267.964C267.794 89.2438 267.453 88.7329 266.262 88.7329C265.072 88.7329 264.561 89.5845 264.561 90.6064V93.161C264.561 94.1829 265.072 95.0345 266.262 95.0345C267.453 95.0345 267.964 94.1829 267.964 93.161H266.433C266.433 93.161 266.262 93.161 266.262 92.9907V91.6282C266.262 91.6282 266.262 91.4579 266.433 91.4579H269.665C269.665 91.4579 269.835 91.4579 269.835 91.6282V93.3313C269.835 95.3751 268.644 97.0782 266.092 97.0782C263.54 97.0782 262.349 95.5454 262.349 93.3313V92.9907ZM275.28 96.2267V95.3751C274.769 96.0564 274.089 96.5673 273.238 96.5673C271.877 96.5673 271.026 95.7157 271.026 94.3532C271.026 92.9907 271.877 92.1392 274.089 92.1392H275.11V91.6282C275.11 90.947 274.769 90.6064 274.089 90.6064C273.408 90.6064 273.238 90.947 273.068 91.2876H272.898L271.367 90.947V90.7767C271.707 89.7548 272.557 88.9032 274.259 88.9032C275.96 88.9032 277.151 89.7548 277.151 91.4579V96.2267C277.151 96.2267 277.151 96.397 276.981 96.397H275.45C275.45 96.397 275.28 96.397 275.28 96.2267ZM273.919 95.0345C274.599 95.0345 275.11 94.6939 275.28 94.0126V93.3313H274.259C273.408 93.3313 273.068 93.672 273.068 94.1829C273.068 94.6938 273.408 95.0345 273.919 95.0345ZM279.023 96.2267V89.2439C279.023 89.2439 279.023 89.0735 279.193 89.0735H280.724C280.724 89.0735 280.894 89.0735 280.894 89.2439V89.9251C281.405 89.2438 281.915 88.9032 282.766 88.9032C283.616 88.9032 284.297 89.2439 284.637 90.0954C285.148 89.4142 285.828 88.9032 286.679 88.9032C288.04 88.9032 288.891 89.9251 288.891 91.7985V96.2267C288.891 96.2267 288.891 96.397 288.72 96.397H287.019C287.019 96.397 286.849 96.397 286.849 96.2267V91.7985C286.849 91.1173 286.509 90.6064 285.998 90.6064C285.488 90.6064 284.977 91.1173 284.807 91.6282V96.0564C284.807 96.0564 284.807 96.2267 284.637 96.2267H282.936C282.936 96.2267 282.766 96.2267 282.766 96.0564V91.6282C282.766 90.947 282.425 90.436 281.915 90.436C281.405 90.436 280.894 90.947 280.724 91.4579V95.886C280.724 95.886 280.724 96.0564 280.554 96.0564H278.853C278.853 96.0564 278.682 96.0563 278.682 95.886L279.023 96.2267ZM292.634 95.5454V96.2267C292.634 96.2267 292.634 96.397 292.463 96.397H290.932C290.932 96.397 290.762 96.397 290.762 96.2267V86.5188C290.762 86.5188 290.762 86.3485 290.932 86.3485H292.634C292.634 86.3485 292.804 86.3485 292.804 86.5188V89.9251C293.144 89.2438 293.995 88.9032 294.845 88.9032C296.377 88.9032 297.397 90.0954 297.397 91.9689V93.5017C297.397 95.3751 296.377 96.5673 294.845 96.5673C293.314 96.5673 293.314 96.2267 292.804 95.5454H292.634ZM293.995 94.8642C294.675 94.8642 295.186 94.3532 295.186 93.5017V91.9689C295.186 91.1173 294.675 90.6064 293.995 90.6064C293.314 90.6064 292.634 91.1173 292.634 91.9689V93.5017C292.634 94.3532 293.144 94.8642 293.995 94.8642ZM298.758 96.2267V86.5188C298.758 86.5188 298.758 86.3485 298.929 86.3485H300.63C300.63 86.3485 300.8 86.3485 300.8 86.5188V96.2267C300.8 96.2267 300.8 96.397 300.63 96.397H298.929C298.929 96.397 298.758 96.397 298.758 96.2267ZM302.501 88.0517V86.6892C302.501 86.6892 302.501 86.5188 302.672 86.5188H304.373C304.373 86.5188 304.543 86.5189 304.543 86.6892V88.0517C304.543 88.0517 304.543 88.222 304.373 88.222H302.672C302.672 88.222 302.501 88.222 302.501 88.0517ZM302.501 96.2267V89.2439C302.501 89.2439 302.501 89.0735 302.672 89.0735H304.373C304.373 89.0735 304.543 89.0735 304.543 89.2439V96.2267C304.543 96.2267 304.543 96.397 304.373 96.397H302.672C302.672 96.397 302.501 96.397 302.501 96.2267ZM306.415 96.2267V89.2439C306.415 89.2439 306.415 89.0735 306.585 89.0735H308.116C308.116 89.0735 308.286 89.0735 308.286 89.2439V89.9251C308.796 89.2438 309.477 88.9032 310.328 88.9032C311.859 88.9032 312.539 89.9251 312.539 91.7985V96.2267C312.539 96.2267 312.539 96.397 312.369 96.397H310.668C310.668 96.397 310.498 96.397 310.498 96.2267V91.7985C310.498 91.1173 310.157 90.6064 309.477 90.6064C308.796 90.6064 308.456 91.1173 308.116 91.6282V96.0564C308.116 96.0564 308.116 96.2267 307.946 96.2267H306.244C306.244 96.2267 306.074 96.2267 306.074 96.0564L306.415 96.2267ZM313.9 97.4189C313.9 96.7376 314.241 96.2267 315.091 95.886C314.751 95.5454 314.581 95.2048 314.581 94.8642C314.581 94.5235 314.751 94.0126 315.262 93.8423C314.581 93.3313 314.071 92.6501 314.071 91.7985C314.071 90.436 314.921 89.2439 316.963 89.2439H320.366C320.366 89.2439 320.536 89.2439 320.536 89.4142V90.6064C320.536 90.6064 320.536 90.7767 320.366 90.7767H319.345C319.685 91.1173 319.855 91.4579 319.855 92.1392C319.855 93.3313 319.005 94.3532 317.133 94.3532H316.793C316.453 94.3532 316.282 94.3532 316.282 94.6938C316.282 95.0345 316.282 95.0345 316.793 95.0345H318.154C320.025 95.0345 320.706 95.886 320.706 97.0782C320.706 98.2704 319.685 99.4626 317.133 99.4626C314.581 99.4626 313.9 98.611 313.9 97.5892V97.4189ZM317.133 97.9298C318.324 97.9298 318.664 97.5892 318.664 97.0782C318.664 96.5673 318.494 96.397 317.814 96.397H316.453C315.772 96.397 315.602 96.7376 315.602 97.0782C315.602 97.4189 315.942 97.9298 317.133 97.9298ZM316.963 92.8204C317.643 92.8204 318.154 92.4798 318.154 91.6282C318.154 90.7767 317.814 90.6064 316.963 90.6064C316.112 90.6064 315.772 90.947 315.772 91.6282C315.772 92.3095 316.112 92.8204 316.963 92.8204ZM330.744 96.2267V92.4798H327.341V96.2267C327.341 96.2267 327.341 96.397 327.171 96.397H325.47C325.47 96.397 325.3 96.397 325.3 96.2267V86.8595C325.3 86.8595 325.3 86.6892 325.47 86.6892H327.171C327.171 86.6892 327.341 86.6892 327.341 86.8595V90.6064H330.744V86.8595C330.744 86.8595 330.744 86.6892 330.914 86.6892H332.615C332.615 86.6892 332.786 86.6892 332.786 86.8595V96.2267C332.786 96.2267 332.786 96.397 332.615 96.397H330.914C330.914 96.397 330.744 96.397 330.744 96.2267ZM334.487 93.672V92.1392C334.487 90.0954 335.678 89.0735 337.549 89.0735C339.421 89.0735 340.612 90.2657 340.612 92.1392V93.3313C340.612 93.3313 340.612 93.5017 340.442 93.5017H336.188C336.188 94.5235 336.699 95.0345 337.549 95.0345C338.4 95.0345 338.57 94.6939 338.74 94.3532H338.91L340.272 94.6938V94.8642C339.931 96.0564 338.91 96.7376 337.379 96.7376C335.848 96.7376 334.147 95.7157 334.147 93.672H334.487ZM338.91 92.1392C338.91 91.1173 338.4 90.6064 337.719 90.6064C337.039 90.6064 336.358 91.1173 336.358 91.9689C336.358 92.1392 338.91 92.1392 338.91 92.1392ZM342.313 96.2267V86.5188C342.313 86.5188 342.313 86.3485 342.483 86.3485H344.185C344.185 86.3485 344.355 86.3485 344.355 86.5188V96.2267C344.355 96.2267 344.355 96.397 344.185 96.397H342.483C342.483 96.397 342.313 96.397 342.313 96.2267ZM346.226 98.9517V89.4142C346.226 89.4142 346.226 89.2439 346.396 89.2439H347.928C347.928 89.2439 348.098 89.2439 348.098 89.4142V90.0954C348.438 89.4142 349.289 89.0735 350.139 89.0735C351.671 89.0735 352.691 90.2657 352.691 92.1392V93.672C352.691 95.5454 351.671 96.7376 350.139 96.7376C348.608 96.7376 348.608 96.397 348.268 95.886V99.122C348.268 99.122 348.268 99.2923 348.098 99.2923H346.396C346.396 99.2923 346.226 99.2923 346.226 99.122V98.9517ZM349.459 94.8642C350.139 94.8642 350.65 94.3532 350.65 93.5017V91.9689C350.65 91.1173 350.139 90.6064 349.459 90.6064C348.778 90.6064 348.098 91.1173 348.098 91.9689V93.5017C348.098 94.3532 348.608 94.8642 349.459 94.8642ZM354.223 96.2267V86.5188C354.223 86.5188 354.223 86.3485 354.393 86.3485H356.094C356.094 86.3485 356.264 86.3485 356.264 86.5188V96.2267C356.264 96.2267 356.264 96.397 356.094 96.397H354.393C354.393 96.397 354.223 96.397 354.223 96.2267ZM358.136 88.0517V86.6892C358.136 86.6892 358.136 86.5188 358.306 86.5188H360.007C360.007 86.5188 360.177 86.5189 360.177 86.6892V88.0517C360.177 88.0517 360.177 88.222 360.007 88.222H358.306C358.306 88.222 358.136 88.222 358.136 88.0517ZM358.136 96.2267V89.2439C358.136 89.2439 358.136 89.0735 358.306 89.0735H360.007C360.007 89.0735 360.177 89.0735 360.177 89.2439V96.2267C360.177 96.2267 360.177 96.397 360.007 96.397H358.306C358.306 96.397 358.136 96.397 358.136 96.2267ZM361.879 96.2267V89.2439C361.879 89.2439 361.879 89.0735 362.049 89.0735H363.58C363.58 89.0735 363.75 89.0735 363.75 89.2439V89.9251C364.261 89.2438 364.941 88.9032 365.792 88.9032C367.323 88.9032 368.004 89.9251 368.004 91.7985V96.2267C368.004 96.2267 368.004 96.397 367.834 96.397H366.132C366.132 96.397 365.962 96.397 365.962 96.2267V91.7985C365.962 91.1173 365.622 90.6064 364.941 90.6064C364.261 90.6064 363.92 91.1173 363.58 91.6282V96.0564C363.58 96.0564 363.58 96.2267 363.41 96.2267H361.709C361.709 96.2267 361.538 96.2267 361.538 96.0564L361.879 96.2267ZM369.705 93.672V92.1392C369.705 90.0954 370.896 89.0735 372.767 89.0735C374.639 89.0735 375.83 90.2657 375.83 92.1392V93.3313C375.83 93.3313 375.83 93.5017 375.66 93.5017H371.406C371.406 94.5235 371.917 95.0345 372.767 95.0345C373.618 95.0345 373.788 94.6939 373.958 94.3532H374.129L375.49 94.6938V94.8642C375.149 96.0564 374.129 96.7376 372.597 96.7376C371.066 96.7376 369.365 95.7157 369.365 93.672H369.705ZM374.129 92.1392C374.129 91.1173 373.618 90.6064 372.938 90.6064C372.257 90.6064 371.576 91.1173 371.576 91.9689C371.576 92.1392 374.129 92.1392 374.129 92.1392Z" fill="#656565"></path>
</svg>
