<svg width="549" height="102" viewBox="0 0 549 102" fill="none" xmlns="http://www.w3.org/2000/svg">
<path d="M89.07 46.54H65L64.44 79.25C61.4884 80.9005 58.1258 81.6709 54.75 81.47C36.75 81.47 25.8 67.74 25.8 50.56C25.8 32.14 39.38 20.09 57.51 20.09C64.4577 20.1451 71.3 21.7941 77.51 24.91L85.24 6.91C78.61 2.91 68 0 55 0C20.09 0 0 20 0 49.89C0 80.8 19.55 101.4 51.82 101.4C64.4011 101.809 76.9225 99.5001 88.53 94.63L89.07 46.54ZM105 98.65H130.11L130.68 51.54H131L160.85 98.65H190.5L157 48.35L192.14 2.78H162.91L130.64 47.39H130.35L130.92 2.78H105.83L105 98.65ZM202.51 98.65H270.25L270.69 77.86H227.46L228.31 2.78H203.37L202.51 98.65Z" fill="#4B4B4B"/>
<path d="M280.75 3.12003H286.1L292.57 29.7C293.26 32.45 294.11 36.63 294.11 36.63C294.11 36.63 295.11 32.27 295.81 29.63L303.18 3.16003H308.74L315.88 29.63C316.63 32.36 317.55 36.63 317.55 36.63C317.55 36.63 318.55 32.22 319.15 29.7L326 3.12003H331.15L319.74 44H314.82L307.33 15.2C306.71 12.78 305.83 8.96003 305.83 8.96003C305.83 8.96003 304.98 12.78 304.29 15.2L296.29 43.99H291.14L280.75 3.12003ZM335.32 3.12003H340V8.83003H335.36L335.32 3.12003ZM335.32 14.45H340V44H335.36L335.32 14.45ZM350.88 19.37C351.79 17.834 353.077 16.5551 354.618 15.654C356.159 14.753 357.905 14.2594 359.69 14.22C360.345 14.1988 360.997 14.3217 361.6 14.58V19H361.42C360.757 18.7785 360.058 18.6835 359.36 18.72C358.244 18.7227 357.139 18.9451 356.109 19.3747C355.078 19.8043 354.143 20.4326 353.355 21.2238C352.568 22.0149 351.944 22.9534 351.519 23.9857C351.095 25.018 350.877 26.1238 350.88 27.24V43.89H346.25V14.45H350.88V19.37ZM373.29 29.26C373.29 20.68 378.9 13.81 387.29 13.81C396.15 13.81 400.89 20.66 400.89 30.44H378C378.36 36.44 381.61 41 387.55 41C389.407 41.154 391.256 40.6314 392.758 39.5287C394.259 38.426 395.311 36.8176 395.72 35H400.25C399.726 37.8999 398.153 40.5056 395.831 42.3203C393.509 44.135 390.601 45.0319 387.66 44.84C378.54 44.79 373.29 37.78 373.29 29.26ZM378.16 26.84H395.93C395.65 20.97 392.61 17.36 387.3 17.36C381.99 17.36 378.83 21.48 378.16 26.84ZM410 19.37C410.906 17.8349 412.189 16.5563 413.727 15.6551C415.265 14.7539 417.008 14.26 418.79 14.22C419.442 14.199 420.091 14.3219 420.69 14.58V19H420.51C419.847 18.7773 419.148 18.6823 418.45 18.72C417.33 18.7292 416.223 18.959 415.193 19.3962C414.162 19.8335 413.227 20.4697 412.442 21.2684C411.657 22.0672 411.038 23.0127 410.619 24.0511C410.2 25.0895 409.989 26.2003 410 27.32V43.89H405.37V14.45H410V19.37ZM423.13 14.45H427.2V9.68003C427.2 4.53003 430.11 2.78003 434.93 2.78003H437.27V6.88003H435.78C432.78 6.88003 431.78 7.62003 431.78 10.02V14.55H437.27V18.21H431.78V44H427.1V18.21H423L423.13 14.45ZM460.63 44V40C459.674 41.4862 458.353 42.7023 456.793 43.5322C455.233 44.3621 453.487 44.7779 451.72 44.74C450.521 44.8572 449.31 44.7362 448.157 44.384C447.005 44.0319 445.933 43.4555 445.004 42.6879C444.074 41.9204 443.306 40.9769 442.743 39.9116C442.179 38.8462 441.832 37.6801 441.72 36.48C441.68 35.9708 441.68 35.4592 441.72 34.95V14.45H446.36V34.8C446.36 38.63 448.93 40.85 453 40.85C454.015 40.854 455.021 40.6575 455.96 40.2718C456.899 39.8861 457.752 39.3188 458.471 38.6025C459.19 37.8861 459.761 37.0348 460.15 36.0975C460.54 35.1601 460.74 34.155 460.74 33.14C460.75 32.9702 460.75 32.7999 460.74 32.63V14.45H465.38V44H460.63ZM446.75 3.40003H451.2V8.83003H446.75V3.40003ZM456.12 3.40003H460.58V8.83003H456.12V3.40003ZM471.73 3.12003H476.37V44H471.73V3.12003ZM483 3.12003H487.63V44H483V3.12003ZM492.41 29.26C492.41 20.68 498.03 13.81 506.41 13.81C515.27 13.81 520.01 20.66 520.01 30.44H497.18C497.51 36.44 500.76 41 506.71 41C508.57 41.1591 510.424 40.6388 511.93 39.5357C513.436 38.4326 514.491 36.8213 514.9 35H519.41C518.906 37.9384 517.326 40.5841 514.979 42.4215C512.631 44.259 509.683 45.1568 506.71 44.94C497.69 44.79 492.41 37.78 492.41 29.26ZM497.28 26.84H515.05C514.77 20.97 511.76 17.36 506.43 17.36C501.1 17.36 498 21.48 497.28 26.84ZM529.17 18.34C530.234 16.8637 531.646 15.6725 533.28 14.8719C534.915 14.0713 536.721 13.6859 538.54 13.75C544.73 13.75 548.54 17.13 548.54 23.26V44H543.9V23.64C543.9 19.81 541.32 17.64 537.23 17.64C536.21 17.5724 535.186 17.7078 534.218 18.0385C533.251 18.3692 532.358 18.8887 531.593 19.5667C530.827 20.2447 530.204 21.0679 529.759 21.9885C529.314 22.9092 529.056 23.909 529 24.93C528.98 25.223 528.98 25.517 529 25.81V44H524.39V14.45H529L529.17 18.34ZM281.18 58H313.56V62.51H300V98.88H294.85V62.51H281.18V58ZM318.3 74.23C319.21 72.694 320.497 71.4151 322.038 70.514C323.579 69.613 325.325 69.1194 327.11 69.08C327.752 69.0641 328.391 69.1763 328.99 69.41V73.84H328.83C328.168 73.6123 327.47 73.5073 326.77 73.53C324.508 73.5167 322.334 74.401 320.724 75.9889C319.113 77.5767 318.198 79.7385 318.18 82V98.93H313.54V69.31H318.18L318.3 74.23ZM350.26 94.76C349.121 96.2711 347.635 97.4861 345.927 98.3023C344.22 99.1186 342.341 99.5122 340.45 99.45C334.84 99.45 330.45 96.87 330.45 91.23C330.45 84.23 335.94 82.81 343.33 81.67C347.5 81.03 350.41 80.67 350.41 77.45C350.41 74.23 348 72.3 343.75 72.3C338.96 72.3 336.56 74.36 336.38 78.82H331.92C332.11 73.1 335.87 68.82 343.7 68.82C349.98 68.82 354.62 71.16 354.62 78.19V92.23C354.62 94.66 355.18 95.97 357.76 95.38H357.94V98.75C357.122 99.0822 356.243 99.2389 355.36 99.21C354.769 99.2856 354.17 99.2438 353.596 99.0871C353.021 98.9303 352.484 98.6616 352.013 98.2964C351.543 97.9312 351.15 97.4768 350.856 96.9591C350.562 96.4415 350.373 95.8709 350.3 95.28C350.28 95.11 350.27 94.93 350.26 94.76ZM350.26 87.96V82.96C348.146 84.0412 345.869 84.7708 343.52 85.12C338.88 85.97 335.17 86.77 335.17 91.12C335.17 95.06 338.26 95.94 341.3 95.94C343.498 96.1202 345.679 95.4232 347.365 94.0011C349.052 92.579 350.107 90.5474 350.3 88.35V87.98L350.26 87.96ZM336.72 58.39H341.17V63.82H336.72V58.39ZM346.09 58.39H350.55V63.82H346.09V58.39ZM380.09 98.88V94.81C379.134 96.3208 377.802 97.5568 376.224 98.3967C374.646 99.2365 372.877 99.6512 371.09 99.6C368.677 99.8226 366.274 99.0791 364.409 97.5324C362.544 95.9858 361.368 93.7624 361.14 91.35C361.095 90.8377 361.095 90.3224 361.14 89.81V69.31H365.77V89.68C365.702 91.2296 366.251 92.7429 367.297 93.8882C368.343 95.0335 369.801 95.7174 371.35 95.79C371.707 95.8036 372.065 95.7868 372.42 95.74C374.468 95.7347 376.431 94.9166 377.877 93.4654C379.322 92.0141 380.133 90.0484 380.13 88V69.31H384.76V98.88H380.09ZM391 69.31H395.64V73.56C396.57 72.063 397.868 70.8293 399.41 69.9767C400.953 69.1242 402.688 68.6812 404.45 68.69C406.121 68.5971 407.777 69.049 409.169 69.9776C410.561 70.9063 411.614 72.2616 412.17 73.84H412.3C413.212 72.2638 414.526 70.9571 416.106 70.0526C417.687 69.1481 419.479 68.678 421.3 68.69C423.571 68.5757 425.795 69.3678 427.483 70.8923C429.17 72.4167 430.184 74.5488 430.3 76.82C430.34 77.2691 430.34 77.7209 430.3 78.17V98.93H425.67V78.33C425.786 76.9059 425.332 75.494 424.408 74.4045C423.483 73.3151 422.164 72.6372 420.74 72.52H420.23C418.235 72.6511 416.369 73.5488 415.021 75.025C413.673 76.5013 412.949 78.4418 413 80.44V98.85H408.31V78.25C408.489 76.8961 408.123 75.5266 407.292 74.4427C406.461 73.3588 405.234 72.6492 403.88 72.47C403.64 72.4551 403.4 72.4551 403.16 72.47C401.12 72.5721 399.197 73.4503 397.784 74.9246C396.371 76.399 395.575 78.3579 395.56 80.4V98.78H390.93L391 69.31ZM434.75 84.15C434.75 75.57 440.36 68.69 448.75 68.69C457.61 68.69 462.35 75.54 462.35 85.31H439.48C439.84 91.31 443.09 95.89 449.04 95.89C450.921 96.0431 452.793 95.5019 454.302 94.3687C455.811 93.2356 456.852 91.589 457.23 89.74H461.76C461.238 92.6748 459.642 95.3101 457.283 97.1328C454.924 98.9554 451.972 99.8349 449 99.6C440 99.6 434.75 92.7 434.75 84.15ZM439.61 81.75H457.39C457.1 75.85 454.06 72.27 448.76 72.27C443.46 72.27 440.28 76.42 439.61 81.73V81.75ZM465.68 93.21H471.22V98.88H465.68V93.21Z" fill="#4B4B4B"/>
</svg>
