<svg xmlns="http://www.w3.org/2000/svg" viewBox="0 0 662.8 101.48"><path d="M296.25 99.08H305c8.23 0 13.91-5.72 13.91-13.09v-.07c0-7.37-5.68-13-13.91-13h-8.72v26.16zm1.95-1.8V74.7h6.8c7.29 0 11.89 5.08 11.89 11.29v.07c0 6.25-4.6 11.22-11.89 11.22zm26.18 1.8h18.81v-1.8h-16.87v-10.5h15V85h-15V74.7H343v-1.8h-18.62v26.18zm25.42 0h1.95V88.23h8.56l8.34 10.85h2.47l-8.64-11.18c4.41-.6 7.67-3.11 7.67-7.48v-.08a6.94 6.94 0 00-2-4.86 10.35 10.35 0 00-7.37-2.58h-11v26.18zm1.95-12.6V74.7h8.94c4.75 0 7.51 2.2 7.51 5.72v.07c0 3.78-3.25 6-7.63 6zm44.91 12.6H414v-1.8h-15.4V72.9h-1.94v26.18zm22 0h2l3.34-7.33h15.45l3.32 7.33h2.14l-12.16-26.36h-1.87l-12.2 26.36zm6.2-9.08l6.91-15.14L438.65 90zm8.9-19.89h2.73v-2.85h-2.73v2.84zm-6.59 0h2.77v-2.85h-2.77v2.84zm22.93 29h1.9V75.82l18.4 23.26h1.46V72.9H470v22.78L451.93 72.9h-1.83v26.18zm29.91 0h8.72c8.22 0 13.91-5.72 13.91-13.09v-.07c0-7.37-5.69-13-13.91-13H480v26.13zm1.95-1.8V74.7h6.77c7.29 0 11.89 5.08 11.89 11.29v.07c0 6.25-4.6 11.22-11.89 11.22zm26.17 1.8h18.81v-1.8h-16.86V86.78h15V85h-15V74.7h16.68v-1.8h-18.63v26.18zm26.18 0h2V88.23h8.56l8.34 10.85h2.47L547 87.9c4.41-.6 7.66-3.11 7.66-7.48v-.08a6.9 6.9 0 00-2-4.86 10.31 10.31 0 00-7.37-2.58h-11v26.18zm2-12.6V74.7h8.93c4.75 0 7.52 2.2 7.52 5.72v.07c0 3.78-3.25 6-7.63 6zM296.25 62.85h1.95V56.2l6.51-6.58 10.77 13.23H318l-11.91-14.62 11.44-11.55h-2.65l-16.68 17.2v-17.2h-1.95v26.17zm27.86 0h17.32v-1.79h-15.37V36.68h-1.95v26.17zm21.09 0h2l3.33-7.33H366l3.32 7.33h2.14l-12.2-26.36h-1.86l-12.2 26.36zm6.18-9.08l6.91-15.15 6.88 15.15zm34.14 9.46c5.05 0 8.67-2.92 8.67-7.15V56c0-3.82-2.54-6-8.6-7.22S378 45.84 378 43.07V43c0-2.73 2.55-4.94 6.4-4.94a11.24 11.24 0 017.77 2.94l1.24-1.53a13.07 13.07 0 00-9-3.18c-4.86 0-8.41 3-8.41 6.88v.08c0 4 2.54 6.09 8.82 7.36 6 1.2 7.41 2.81 7.41 5.58v.07c0 3-2.7 5.2-6.62 5.2s-6.51-1.24-9.39-3.89L375 59a14.93 14.93 0 0010.55 4.19zm24.68 0c5.05 0 8.67-2.92 8.67-7.15V56c0-3.82-2.54-6-8.6-7.22s-7.63-2.95-7.63-5.72V43c0-2.73 2.55-4.94 6.4-4.94a11.24 11.24 0 017.81 2.94l1.24-1.53a13.07 13.07 0 00-9-3.18c-4.86 0-8.41 3-8.41 6.88v.08c0 4 2.54 6.09 8.82 7.36 6 1.2 7.41 2.81 7.41 5.58v.07c0 3-2.69 5.2-6.62 5.2s-6.51-1.24-9.39-3.89L399.65 59a14.93 14.93 0 0010.55 4.19zm16-.38H445v-1.79h-16.85V50.55h15v-1.8h-15V38.47h16.68v-1.79H426.2v26.17zm26.93 0H455V39.59l18.43 23.26h1.46V36.68H473v22.77l-18-22.77h-1.83v26.17zm31.41 0h17.31v-1.79h-15.37V36.68h-1.94v26.17zm31.37.45c7.93 0 13.21-6.39 13.21-13.54v-.07c0-7.14-5.2-13.46-13.13-13.46s-13.2 6.39-13.2 13.53v.08c0 7.14 5.2 13.46 13.12 13.46zm.08-1.76c-6.47 0-11.18-5.31-11.18-11.78v-.07c0-6.47 4.63-11.71 11.1-11.71s11.18 5.31 11.18 11.78v.08c0 6.47-4.63 11.7-11.1 11.7zm23.15 1.31h1.94V38.47h9.13v-1.79H530v1.79h9.13v24.38zm23.67 0h1.94V38.47h9.13v-1.79h-20.2v1.79h9.13v24.38zm17 0h18.8v-1.79h-16.88V50.55h15v-1.8h-15V38.47h16.68v-1.79h-18.62v26.17zm25.42 0h1.95V52h8.56l8.34 10.84h2.47l-8.64-11.18c4.41-.6 7.67-3.1 7.67-7.48v-.07a6.91 6.91 0 00-2-4.86 10.35 10.35 0 00-7.37-2.58h-11v26.18zm1.95-12.6V38.47h8.94c4.74 0 7.51 2.21 7.51 5.72v.08c0 3.77-3.25 6-7.63 6zm26.47 12.6h2V36.68h-2v26.17zm10.36 0h18.79v-1.79h-16.86V50.55h15v-1.8h-15V38.47h16.68v-1.79H644v26.17zM308.26 27.08a15.75 15.75 0 0010.28-3.93v-10.1h-10.62v1.8h8.75v7.51a13.44 13.44 0 01-8.34 3c-7 0-11.21-5-11.21-11.81v-.08c0-6.32 4.44-11.7 10.8-11.7a11.78 11.78 0 018.42 3.14l1.27-1.46A13.73 13.73 0 00308 0c-7.81 0-12.94 6.47-12.94 13.54v.07c0 7.37 4.9 13.47 13.17 13.47zm17.74-.45h18.81v-1.8h-16.92V14.32h15v-1.79h-15V2.24h16.68V.45H326v26.18zm25.43 0h1.87V3.89L363.6 19h.15l10.36-15.11v22.74h1.95V.45h-1.84l-10.5 15.48L353.21.45h-1.83v26.18zm33.58 0h18.81v-1.8H386.9V14.32h15v-1.79h-15V2.24h16.68V.45H385v26.18zm26.43 0h1.95V.45h-1.95v26.18zm11.48 0h1.87V3.37l18.44 23.26h1.46V.45h-1.87v22.77L424.71.45h-1.84v26.18zm39.34.37c5.05 0 8.68-2.92 8.68-7.14v-.08c0-3.81-2.54-6-8.6-7.22-6.21-1.27-7.63-3-7.63-5.72v-.07c0-2.73 2.54-4.94 6.39-4.94a11.29 11.29 0 017.82 3l1.23-1.54a13 13 0 00-9-3.17c-4.86 0-8.41 3-8.41 6.88 0 4 2.54 6.1 8.82 7.37 5.95 1.19 7.4 2.8 7.4 5.57V20c0 3-2.69 5.2-6.61 5.2a12.69 12.69 0 01-9.39-3.89l-1.27 1.46A14.88 14.88 0 00462.21 27zm12.27-.37h2l3.33-7.33h15.44l3.33 7.33h2.13L488.54.26h-1.87l-12.19 26.37zm6.17-9.09l6.92-15.15 6.88 15.15zm25.43 9.09H508V3.89L518.31 19h.15l10.36-15.11v22.74h1.94V.45h-1.83l-10.51 15.48L507.91.45h-1.83v26.18zm32.46 0h18.81v-1.8h-16.92V14.32h15v-1.79h-15V2.24h16.68V.45h-18.62v26.18zM88.91 46.72H64.85l-.55 32.64a17.79 17.79 0 01-9.68 2.21c-18.12 0-28.9-13.69-28.9-31 0-18.39 13.55-30.42 31.66-30.42 5.95 0 14.8 1.94 19.91 5l7.61-18c-6.36-4-17-6.92-30-6.92C20.05.26 0 20.17 0 50c0 31 19.5 51.44 51.71 51.44 12.73 0 25-1.52 36.65-6.78l.55-48zm15.9 52h25l.55-47h.28l29.86 47h29.59l-33.43-50.2L191.78 3h-29.17l-32.22 44.55h-.28L130.67 3h-25l-.83 95.68zm97.34 0h67.62l.41-20.72H227l.87-75H203l-.83 95.68z" fill="#fafafa" data-name="Ebene 1"/></svg>