<?xml version="1.0" encoding="UTF-8"?>
<svg version="1.1" xmlns="http://www.w3.org/2000/svg" width="512" height="512">
<path d="M0 0 C0.75771123 -0.00235223 1.51542245 -0.00470446 2.29609463 -0.00712797 C4.84966514 -0.01381532 7.40318473 -0.01335983 9.95676327 -0.01294994 C11.80028722 -0.01624873 13.64381045 -0.01997433 15.48733276 -0.02409142 C20.56496477 -0.03411785 25.64258495 -0.03782925 30.72022545 -0.04048073 C36.19213274 -0.04438189 41.66403066 -0.05396037 47.13593197 -0.0626936 C60.35653026 -0.0824635 73.57712932 -0.09252495 86.7977387 -0.10142139 C93.0220521 -0.10580349 99.24636465 -0.1111705 105.47067738 -0.11641026 C126.15924462 -0.13342318 146.8478114 -0.14794246 167.53638458 -0.155159 C168.87434637 -0.15563375 170.21230817 -0.15610964 171.55026996 -0.15658666 C172.21377475 -0.15682303 172.87727954 -0.15705941 173.56089054 -0.15730295 C176.92249798 -0.15850414 180.28410542 -0.15971959 183.64571285 -0.16094494 C184.31283248 -0.16118509 184.97995212 -0.16142524 185.66728749 -0.16167267 C207.29250462 -0.169564 228.91766688 -0.19299223 250.54286005 -0.22550088 C273.40953793 -0.25981301 296.27619188 -0.27951031 319.14289707 -0.28280324 C331.60643628 -0.28496906 344.06989485 -0.29372836 356.53341007 -0.31926441 C367.14748597 -0.34096084 377.76146163 -0.349027 388.37555719 -0.33929763 C393.79056362 -0.33474989 399.20536318 -0.33666694 404.6203413 -0.35605907 C409.58062565 -0.37366934 414.5405519 -0.37271019 419.50083994 -0.35716178 C421.29229486 -0.35478248 423.08377443 -0.35912594 424.87519164 -0.37099043 C439.69806438 -0.46305606 450.69954788 1.68120619 461.67085934 12.16937733 C468.84474742 19.66034334 472.65129824 28.36192887 472.68239498 38.74899769 C472.6909602 40.46467693 472.6909602 40.46467693 472.69969845 42.21501637 C472.70081631 43.46597599 472.70193417 44.71693562 472.7030859 46.00580311 C472.70771663 47.33990586 472.71274163 48.67400729 472.71813107 50.00810719 C472.73123606 53.63032657 472.73769678 57.25252744 472.74214172 60.87476683 C472.74507667 63.14094032 472.74918236 65.4071088 472.7536459 67.67327976 C472.76731836 74.7724992 472.77698517 81.87170712 472.78084779 88.9709388 C472.78532234 97.14880486 472.80284317 105.32650326 472.83184838 113.50431836 C472.85351991 119.83571654 472.86355505 126.16706776 472.86488891 132.49850261 C472.8659334 136.27484742 472.87176455 140.05103458 472.88970852 143.82734013 C472.90628325 147.38474992 472.90829962 150.94188519 472.89956951 154.49932003 C472.89844159 156.41298527 472.91208779 158.32664177 472.92632198 160.2402544 C472.86403602 173.22169648 469.53107605 184.02603298 460.24898434 193.46625233 C448.55417274 203.48772045 435.98739258 204.2886626 421.24802303 204.25447559 C419.88904692 204.254912 418.53007089 204.25578819 417.17109531 204.25706476 C413.44718373 204.25929606 409.72330101 204.25530713 405.99939311 204.2502867 C401.97971037 204.24596277 397.96002922 204.24743 393.94034481 204.24818897 C386.97941929 204.24871297 380.01850315 204.24557908 373.05757999 204.23995113 C362.99328997 204.23181941 352.92900447 204.2292192 342.86471152 204.22796314 C326.53552449 204.22577526 310.20634247 204.2191223 293.87715816 204.20966053 C278.01615582 204.20047961 262.15515482 204.1934021 246.29415035 204.18915272 C245.31625487 204.18888999 244.33835938 204.18862727 243.3308307 204.18835659 C238.42494978 204.18705154 233.51906885 204.18578783 228.61318791 204.18454468 C187.92277282 204.17418027 147.23236324 204.1565691 106.54195309 204.13422108 C106.23790554 204.75575565 105.93385799 205.37729023 105.62059689 206.01765919 C104.52308904 208.17123694 103.28268925 210.00051387 101.84664059 211.94281483 C101.30313961 212.67991688 100.75963863 213.41701893 100.19966793 214.17645741 C99.61137203 214.96689442 99.02307613 215.75733143 98.41695309 216.57172108 C97.80674313 217.39631824 97.19653316 218.22091541 96.56783199 219.07050037 C91.07533049 226.46948427 85.492454 233.79942425 79.87349606 241.10272694 C75.88956097 246.29470064 75.88956097 246.29470064 72.26851559 251.73968983 C71.69874996 252.52988514 71.12898434 253.32008045 70.54195309 254.13422108 C69.55195309 254.13422108 68.56195309 254.13422108 67.54195309 254.13422108 C66.17012691 252.72333241 66.17012691 252.72333241 64.74898434 250.71625233 C64.20886715 249.96642078 63.66874996 249.21658924 63.11226559 248.44403553 C62.53218746 247.61992176 61.95210934 246.79580799 61.35445309 245.94672108 C60.10228709 244.20588467 58.84830992 242.46634992 57.59273434 240.72797108 C56.93482906 239.81402576 56.27692379 238.90008045 55.59908199 237.95843983 C52.15533091 233.23053661 48.59910464 228.58956956 45.04195309 223.94672108 C43.13029961 221.44866795 41.21895072 218.95041457 39.31148434 216.44916248 C38.12731814 214.90000908 36.93715181 213.35542463 35.74117184 211.81537342 C34.91552731 210.74150379 34.91552731 210.74150379 34.07320309 209.64593983 C33.58400387 209.01518543 33.09480465 208.38443104 32.59078121 207.73456287 C31.54195309 206.13422108 31.54195309 206.13422108 31.54195309 204.13422108 C30.5998901 204.14469471 29.65782711 204.15516834 28.68721676 204.16595936 C25.14047885 204.20035777 21.59392218 204.22527221 18.04708004 204.24408436 C16.52166068 204.25404707 14.99625993 204.26762217 13.47090816 204.28509998 C-2.16458992 204.45956895 -16.67446392 203.62563981 -28.83304691 192.50922108 C-35.53298834 185.26377294 -39.56412192 176.20055692 -39.60521793 166.37431812 C-39.61237324 165.1983205 -39.61952854 164.02232288 -39.62690067 162.81068897 C-39.62958958 161.52389744 -39.63227848 160.2371059 -39.63504887 158.91132069 C-39.64131705 157.53943174 -39.64796417 156.16754448 -39.65496159 154.79565907 C-39.67596923 150.2926396 -39.68636365 145.78961994 -39.69632816 141.28656483 C-39.70037751 139.732834 -39.70449449 138.17910335 -39.70867825 136.62537289 C-39.72772587 129.321657 -39.74195552 122.01795116 -39.75029022 114.71421522 C-39.7600492 106.30256093 -39.78633529 97.89117074 -39.82679111 89.47960943 C-39.85703347 82.9664574 -39.87176692 76.45338069 -39.87507123 69.94015986 C-39.87741325 66.05585916 -39.8862617 62.17184071 -39.9115324 58.28761578 C-39.93495975 54.62755261 -39.93898828 50.96795454 -39.92877102 47.30783558 C-39.92804627 45.34066731 -39.9470357 43.37352188 -39.96683598 41.40645313 C-39.89694511 29.371134 -36.86722189 19.92095085 -28.45804691 11.13422108 C-20.24091417 3.621414 -11.04147901 -0.02323292 0 0 Z " fill="#FED26B" transform="translate(39.45804691314697,-0.13422107696533203)"/>
<path d="M0 0 C21.41440521 18.50665004 33.61847914 44.18225609 36.88671875 72.07421875 C36.99411209 73.61439641 37.07718237 75.15644982 37.13671875 76.69921875 C37.17667969 77.59125 37.21664062 78.48328125 37.2578125 79.40234375 C37.73740299 100.50432515 32.35452168 119.4096559 22.13671875 137.69921875 C21.59273437 138.68535156 21.04875 139.67148437 20.48828125 140.6875 C6.40889858 164.41641079 -18.2977749 181.03836098 -44.61621094 188.16333008 C-53.60587127 190.30721365 -62.38787533 191.06003376 -71.61328125 191.01171875 C-73.31943604 191.00325928 -73.31943604 191.00325928 -75.06005859 190.99462891 C-101.94435754 190.60876644 -125.67606281 180.13730998 -145.86328125 162.69921875 C-146.98476562 161.73242188 -146.98476562 161.73242188 -148.12890625 160.74609375 C-163.19211201 146.66260869 -172.9049498 127.50368907 -177.86328125 107.69921875 C-178.04874512 106.97637695 -178.23420898 106.25353516 -178.42529297 105.50878906 C-180.12971994 98.09810479 -180.24880877 90.77950938 -180.23828125 83.19921875 C-180.23773743 82.53791962 -180.2371936 81.87662048 -180.2366333 81.19528198 C-180.1252239 51.67312776 -168.8523712 25.62834756 -148.11328125 4.51171875 C-107.12811163 -36.01683757 -43.78246139 -35.18126843 0 0 Z " fill="#F6F2F0" transform="translate(179.86328125,321.30078125)"/>
<path d="M0 0 C7.81432533 7.21667139 12.38326949 16.18808018 13.22265625 26.8203125 C13.57245983 38.71363438 10.19379698 49.01839551 2.21875 58.0078125 C-3.06862155 63.01347983 -10.52696181 68 -18 68 C-18 68.66 -18 69.32 -18 70 C-17.40574219 70.02578125 -16.81148438 70.0515625 -16.19921875 70.078125 C0.60822766 71.22824575 15.67259161 80.3061577 27.1875 92.2734375 C35.01414741 101.47586277 41.54651753 113.12891942 44 125 C44.29132813 125.96550781 44.58265625 126.93101562 44.8828125 127.92578125 C45.6473891 131.38395244 45.87484672 133.55529104 45 137 C40.95391868 141.37482543 36.18550184 144.14218524 31 147 C30.34660645 147.37141113 29.69321289 147.74282227 29.02001953 148.12548828 C11.92115072 157.72837711 -6.11680223 162.41532237 -25.75 162.3125 C-27.45615479 162.30404053 -27.45615479 162.30404053 -29.19677734 162.29541016 C-53.33133741 161.94901388 -79.5614688 153.4385312 -97 136 C-97.16482022 118.43016491 -88.35207329 101.93092 -76.49414062 89.48242188 C-64.5206302 77.60282134 -50.05982344 72.50471115 -34 69 C-35.14275391 68.58041016 -35.14275391 68.58041016 -36.30859375 68.15234375 C-48.60488764 63.37812727 -56.42142022 57.35684841 -62.25390625 45.4375 C-66.18331807 36.01786469 -66.40315782 26.05596612 -63.03515625 16.40625 C-58.62228297 6.14840117 -52.2882671 -1.56992978 -41.984375 -6.22265625 C-27.33624246 -11.96080266 -12.4906653 -9.29977265 0 0 Z " fill="#EBE1DC" transform="translate(134,350)"/>
<path d="M0 0 C1.34529039 -0.00445668 1.34529039 -0.00445668 2.71775836 -0.0090034 C5.72930335 -0.01768956 8.74080858 -0.01919858 11.75236511 -0.02069092 C13.90905848 -0.02531912 16.06575103 -0.03034378 18.22244263 -0.03573608 C24.08612482 -0.04886116 29.94979556 -0.05530516 35.81349015 -0.05974674 C39.47600029 -0.06267705 43.13850729 -0.06678176 46.80101585 -0.07125092 C58.25768069 -0.0849256 69.71433836 -0.09459262 81.17101079 -0.09845281 C94.40087434 -0.10293483 107.63063463 -0.12048959 120.86046678 -0.1494534 C131.08392894 -0.17105944 141.30736202 -0.1811565 151.53084677 -0.18249393 C157.63829909 -0.18354264 163.74565435 -0.18946487 169.85308266 -0.20731354 C175.5978192 -0.22377569 181.34238552 -0.22595867 187.08713722 -0.21717453 C189.19504247 -0.21640319 191.30295681 -0.22075963 193.41083908 -0.23063278 C196.28980226 -0.24332632 199.16816018 -0.23748942 202.04711914 -0.22705078 C203.29645452 -0.23913539 203.29645452 -0.23913539 204.57102901 -0.25146413 C211.13486543 -0.19585384 215.77197402 1.14239197 220.96403503 5.39044189 C225.15332705 10.51068769 226.76906572 15.34362011 226.49137878 21.87481689 C225.65517675 28.7057631 223.27992097 32.70802931 217.93278503 37.01153564 C213.72906149 39.7726177 209.21423622 39.28575178 204.38973999 39.28088379 C203.47669438 39.28385491 202.56364877 39.28682603 201.62293512 39.28988719 C198.55067213 39.29858776 195.47844805 39.30008358 192.40617371 39.30157471 C190.20859697 39.3062019 188.01102104 39.31122643 185.81344604 39.31661987 C179.83407298 39.32975497 173.85471116 39.33619094 167.87532592 39.34063053 C164.14163737 39.34355934 160.40795191 39.34766377 156.67426491 39.3521347 C144.9981512 39.36581227 133.32204395 39.37549372 121.64592284 39.3793366 C120.30200906 39.37978006 118.95809529 39.38022662 117.61418152 39.38067627 C116.61424051 39.38100841 116.61424051 39.38100841 115.59409866 39.38134727 C104.7927459 39.38529515 93.9914606 39.40274898 83.19013389 39.42603579 C72.10006769 39.44975208 61.01002956 39.46195381 49.91993695 39.46337771 C43.69345385 39.46442701 37.46706589 39.47036145 31.24060631 39.48819733 C25.38426159 39.50464636 19.52808387 39.50684887 13.67172432 39.49805832 C11.52147348 39.49728626 9.37121377 39.50165281 7.22098541 39.51151657 C4.28688386 39.52418754 1.35337813 39.51838551 -1.58071899 39.50793457 C-2.432768 39.51599097 -3.28481701 39.52404738 -4.16268569 39.53234792 C-9.1165644 39.49104447 -12.49106671 38.87432776 -16.78596497 36.14044189 C-21.66392681 31.15161728 -23.78873231 26.74426486 -24.16096497 19.82794189 C-23.99420531 14.01097271 -22.34290887 8.63212737 -18.10237122 4.49981689 C-12.29820377 0.15605287 -7.13175438 -0.00736025 0 0 Z " fill="#EAE1DB" transform="translate(285.7859649658203,383.85955810546875)"/>
<path d="M0 0 C1.32607934 -0.00445668 1.32607934 -0.00445668 2.67894816 -0.0090034 C5.64126069 -0.01767495 8.60353273 -0.01919734 11.56585693 -0.02069092 C13.68989651 -0.02532017 15.81393525 -0.03034498 17.93797302 -0.03573608 C23.70875804 -0.04885144 29.47953143 -0.05530332 35.25032902 -0.05974674 C38.85640939 -0.06267876 42.46248659 -0.06678381 46.06856537 -0.07125092 C57.35330352 -0.08492335 68.63803442 -0.09459135 79.92278028 -0.09845281 C92.94546263 -0.10293357 105.96804003 -0.12048347 118.99069047 -0.1494534 C129.05964061 -0.17107445 139.12856122 -0.18115731 149.19753432 -0.18249393 C155.2100209 -0.18354161 161.22240879 -0.18944186 167.23487091 -0.20731354 C172.89180469 -0.22380152 178.54856565 -0.22594609 184.20551491 -0.21717453 C186.2787173 -0.21640456 188.35192902 -0.22074156 190.42510796 -0.23063278 C193.26171876 -0.2433699 196.09771908 -0.2374658 198.93432617 -0.22705078 C200.15639058 -0.23913539 200.15639058 -0.23913539 201.40314317 -0.25146413 C207.77168899 -0.19701241 214.27958724 0.7957336 219.37738037 4.85919189 C219.82081787 5.44700439 220.26425537 6.03481689 220.72113037 6.64044189 C221.18519287 7.22825439 221.64925537 7.81606689 222.12738037 8.42169189 C225.58732596 13.85874924 224.81438262 20.98289266 224.22113037 27.14044189 C222.3511826 32.63288938 219.34586986 35.45215074 214.29036427 38.27407742 C210.5624502 39.83491224 206.87459548 39.69024697 202.88458252 39.64837646 C201.50482058 39.65773641 201.50482058 39.65773641 200.09718466 39.66728544 C197.02560626 39.68319613 193.95482355 39.67061852 190.88323975 39.65802002 C188.67683958 39.66344198 186.47044304 39.67056505 184.26405334 39.67926025 C178.27856117 39.69748758 172.29334494 39.69042833 166.30784798 39.67774391 C160.042403 39.66761329 153.77698156 39.67700977 147.51153564 39.68328857 C136.31621817 39.69103076 125.12100195 39.67860407 113.92570871 39.65825123 C103.78209572 39.64038101 93.63866584 39.64348537 83.49505615 39.66192627 C71.70583852 39.68334893 59.91671005 39.69129158 48.1274724 39.67947721 C41.89039241 39.67324271 35.65343846 39.67240561 29.41636658 39.68562317 C23.55250181 39.69718192 17.6889827 39.68915502 11.82515526 39.66604614 C9.67371889 39.66075925 7.5222534 39.66227246 5.37082863 39.6710968 C2.43271975 39.68203633 -0.50428325 39.66830735 -3.44232178 39.64837646 C-4.29262042 39.65729935 -5.14291905 39.66622224 -6.01898432 39.67541552 C-12.45773057 39.59076237 -16.73661003 37.9620541 -21.55621338 33.49200439 C-25.79365191 27.18578275 -25.84448738 20.5138292 -24.77886963 13.14044189 C-22.70621576 7.43186133 -19.16810419 3.9473349 -13.77886963 1.14044189 C-9.23882952 -0.10956128 -4.67221204 -0.00491529 0 0 Z " fill="#EAE1DB" transform="translate(287.77886962890625,461.85955810546875)"/>
<path d="M0 0 C0.90896206 -0.00297112 1.81792411 -0.00594224 2.75443047 -0.0090034 C5.81287396 -0.01770379 8.87127838 -0.01919978 11.92973328 -0.02069092 C14.11745793 -0.02531813 16.30518177 -0.03034265 18.49290466 -0.03573608 C24.44541908 -0.04887106 30.3979222 -0.05530713 36.35044885 -0.05974674 C40.06738643 -0.06267557 43.78432092 -0.06678 47.50125694 -0.07125092 C59.7934076 -0.08571491 72.08554977 -0.09504297 84.37770817 -0.09911743 C85.04053564 -0.0993402 85.7033631 -0.09956296 86.38627625 -0.09979248 C87.04991297 -0.10001391 87.7135497 -0.10023534 88.39729663 -0.10046348 C99.15015059 -0.10441134 109.90293678 -0.12186514 120.65576456 -0.145152 C131.69611304 -0.1688685 142.73642581 -0.18107003 153.77679986 -0.18249393 C159.97533747 -0.18354321 166.17377949 -0.18947738 172.37229347 -0.20731354 C178.20237359 -0.22376289 184.03228596 -0.22596493 189.86238098 -0.21717453 C192.0029565 -0.21640249 194.14354092 -0.2207688 196.28409386 -0.23063278 C199.20505911 -0.24330429 202.12542591 -0.23750143 205.04638672 -0.22705078 C205.89454478 -0.23510719 206.74270284 -0.24316359 207.61656266 -0.25146413 C213.39932766 -0.20303632 217.67817212 0.80161894 222.07695007 4.85919189 C222.55519226 5.44700439 223.03343445 6.03481689 223.52616882 6.64044189 C224.01730164 7.22825439 224.50843445 7.81606689 225.01445007 8.42169189 C228.54456953 13.48114649 227.59785462 20.26892305 227.21366882 26.14044189 C225.52709828 31.59699364 221.81515492 34.92985955 217.21366882 38.14044189 C213.27893284 39.45202055 209.5290701 39.28504133 205.42733765 39.28088379 C204.51837559 39.28385491 203.60941353 39.28682603 202.67290717 39.28988719 C199.61446368 39.29858758 196.55605927 39.30008357 193.49760437 39.30157471 C191.30987972 39.30620192 189.12215588 39.31122644 186.93443298 39.31661987 C180.98191857 39.32975485 175.02941544 39.33619092 169.0768888 39.34063053 C165.35995122 39.34355936 161.64301673 39.34766379 157.9260807 39.3521347 C145.63393004 39.36659869 133.34178787 39.37592676 121.04962947 39.38000122 C120.38680201 39.38022398 119.72397455 39.38044675 119.0410614 39.38067627 C118.37742467 39.3808977 117.71378795 39.38111913 117.03004102 39.38134727 C106.27718706 39.38529513 95.52440087 39.40274893 84.77157309 39.42603579 C73.7312246 39.44975229 62.69091184 39.46195382 51.65053779 39.46337771 C45.45200018 39.464427 39.25355816 39.47036117 33.05504417 39.48819733 C27.22496405 39.50464668 21.39505169 39.50684872 15.56495667 39.49805832 C13.42438114 39.49728628 11.28379672 39.50165259 9.14324379 39.51151657 C6.22227854 39.52418808 3.30191174 39.51838522 0.38095093 39.50793457 C-0.89128617 39.52001918 -0.89128617 39.52001918 -2.18922502 39.53234792 C-7.97199001 39.48392011 -12.25083447 38.47926485 -16.64961243 34.42169189 C-17.12785461 33.83387939 -17.6060968 33.24606689 -18.09883118 32.64044189 C-18.58996399 32.05262939 -19.0810968 31.46481689 -19.58711243 30.85919189 C-23.11723188 25.7997373 -22.17051698 19.01196073 -21.78633118 13.14044189 C-20.09976064 7.68389015 -16.38781727 4.35102424 -11.78633118 1.14044189 C-7.8515952 -0.17113677 -4.10173245 -0.00415755 0 0 Z " fill="#EAE1DB" transform="translate(283.7863311767578,305.85955810546875)"/>
<path d="M0 0 C6.06481249 -0.09961787 12.12913826 -0.17182006 18.19458008 -0.21972656 C20.25358386 -0.23971846 22.31253177 -0.26692128 24.37133789 -0.30175781 C40.75409929 -0.57182515 52.83024574 0.27808813 65.12890625 12.03515625 C72.30279434 19.52612226 76.10934515 28.22770779 76.14044189 38.61477661 C76.14615204 39.75856277 76.15186218 40.90234894 76.15774536 42.08079529 C76.15942215 43.95723473 76.15942215 43.95723473 76.16113281 45.87158203 C76.16576354 47.20568478 76.17078855 48.53978621 76.17617798 49.87388611 C76.18928297 53.4961055 76.1957437 57.11830636 76.20018864 60.74054575 C76.20312358 63.00671924 76.20722928 65.27288772 76.21169281 67.53905869 C76.22536528 74.63827812 76.23503208 81.73748604 76.2388947 88.83671772 C76.24336926 97.01458378 76.26089008 105.19228218 76.2898953 113.37009728 C76.31156682 119.70149546 76.32160196 126.03284668 76.32293582 132.36428154 C76.32398032 136.14062634 76.32981146 139.9168135 76.34775543 143.69311905 C76.36433016 147.25052885 76.36634654 150.80766411 76.35761642 154.36509895 C76.35648851 156.27876419 76.3701347 158.1924207 76.3843689 160.10603333 C76.32208293 173.08747541 72.98912297 183.8918119 63.70703125 193.33203125 C52.98255397 202.52200463 41.31312987 204.17355422 27.69140625 204.09765625 C26.72468491 204.0962413 25.75796356 204.09482635 24.76194763 204.09336853 C21.69543268 204.08780221 18.62899262 204.07525599 15.5625 204.0625 C13.47461043 204.05748065 11.38671972 204.0529185 9.29882812 204.04882812 C4.1991902 204.03784382 -0.90039223 204.02060255 -6 204 C-6 203.67 -6 203.34 -6 203 C-5.24976563 202.91363281 -4.49953125 202.82726562 -3.7265625 202.73828125 C7.83090655 201.15167656 17.2620425 196.98076521 25 188 C31.79906212 177.18264849 33.29985807 167.39514934 33.29052734 154.8737793 C33.29724457 153.57354828 33.30396179 152.27331726 33.31088257 150.9336853 C33.32845851 147.38599385 33.33323436 143.83839904 33.33451414 140.29066825 C33.33594106 138.0686804 33.34022083 135.8467167 33.34550858 133.62473488 C33.3639809 125.85731079 33.37218269 118.08995509 33.37060547 110.32250977 C33.36940476 103.10722773 33.3905003 95.89224515 33.4220928 88.67703885 C33.44833039 82.46103164 33.45896965 76.2451218 33.45769465 70.02905971 C33.45718722 66.32591847 33.46274812 62.62304368 33.48405075 58.91995811 C33.50719359 54.78456855 33.49786675 50.64984124 33.48583984 46.5144043 C33.49707886 45.30417099 33.50831787 44.09393768 33.51989746 42.84703064 C33.43143282 30.83091933 29.84201294 21.14365853 22 12 C17.14772459 7.2196863 11.8493069 4.92756273 5.41796875 2.859375 C3 2 3 2 0 0 Z " fill="#FCC645" transform="translate(436,0)"/>
<path d="M0 0 C4.61740839 0.56756142 4.61740839 0.56756142 6.29858398 2.46777344 C6.61126221 3.09200195 6.92394043 3.71623047 7.24609375 4.359375 C7.60896484 5.06449219 7.97183594 5.76960938 8.34570312 6.49609375 C8.70599609 7.23988281 9.06628906 7.98367187 9.4375 8.75 C9.79392578 9.44738281 10.15035156 10.14476562 10.51757812 10.86328125 C10.88173828 11.58386719 11.24589844 12.30445313 11.62109375 13.046875 C12.20914795 14.19289185 12.20914795 14.19289185 12.80908203 15.36206055 C14 18 14 18 15.01513672 21.36645508 C16.30230637 25.15967707 17.46601866 27.88374326 20 31 C25.63876009 33.28673153 31.22558948 33.73097422 37.25 34.1875 C39.61586918 34.42336562 41.97937372 34.67598491 44.34295654 34.93367004 C45.80814583 35.08725666 47.27512529 35.22480128 48.74346924 35.3445282 C53.78688527 35.78688527 53.78688527 35.78688527 56 38 C55.69138555 41.53313471 54.11359807 43.25165477 51.6484375 45.6796875 C50.96136719 46.36160156 50.27429688 47.04351562 49.56640625 47.74609375 C48.84324219 48.44863281 48.12007813 49.15117188 47.375 49.875 C46.67503906 50.56980469 45.97507812 51.26460937 45.25390625 51.98046875 C41.93366882 55.25142622 38.69524295 58.21978203 34.9140625 60.9453125 C32.8862689 62.65728557 32.0803239 63.3812909 31.7355957 66.03662109 C31.97949083 68.42466348 32.44542395 70.66514406 33 73 C33.26091458 74.57135074 33.51221299 76.14432822 33.75390625 77.71875 C34.1554218 80.11217443 34.56322558 82.50413752 34.98242188 84.89453125 C35.88638363 90.33611381 36.12689399 95.4828702 36 101 C33.37215676 102.01404191 32.28391243 102.11225936 29.62158203 101.05957031 C28.75903809 100.57069336 27.89649414 100.08181641 27.0078125 99.578125 C25.57888672 98.78148437 25.57888672 98.78148437 24.12109375 97.96875 C22.63802734 97.11796875 22.63802734 97.11796875 21.125 96.25 C18.24238034 94.62876319 15.35860714 93.00962091 12.47363281 91.39257812 C10.51450508 90.28965031 8.56421545 89.17102508 6.6171875 88.046875 C3.41468948 86.76587579 2.29290245 87.07692699 -1 88 C-3.12665275 89.00324263 -5.2210602 90.0761547 -7.2890625 91.1953125 C-8.48948837 91.83481371 -9.69001209 92.47413126 -10.890625 93.11328125 C-12.7665233 94.12174918 -14.64058038 95.13345113 -16.51269531 96.14892578 C-18.32951614 97.13133725 -20.15252167 98.10139023 -21.9765625 99.0703125 C-23.06018066 99.65570801 -24.14379883 100.24110352 -25.26025391 100.84423828 C-28 102 -28 102 -31 101 C-31.28887417 93.08562578 -30.47221556 85.81711891 -28.9375 78.0625 C-28.54312226 76.05487479 -28.15608187 74.04579054 -27.77734375 72.03515625 C-27.60452881 71.1625415 -27.43171387 70.28992676 -27.25366211 69.39086914 C-26.98770651 66.8841288 -27.10017203 65.34542788 -28 63 C-29.93415939 61.01041221 -31.85477753 59.19422785 -33.9375 57.375 C-35.11706104 56.31119794 -36.29543072 55.24607351 -37.47265625 54.1796875 C-38.06320801 53.64827148 -38.65375977 53.11685547 -39.26220703 52.56933594 C-41.83472875 50.24618763 -44.36923997 47.89557767 -46.875 45.5 C-47.69742187 44.7265625 -48.51984375 43.953125 -49.3671875 43.15625 C-51 41 -51 41 -50.8203125 38.78125 C-50 37 -50 37 -49 36 C-47.00345372 35.65371606 -44.99709287 35.36371168 -42.98828125 35.09765625 C-41.75529297 34.92943359 -40.52230469 34.76121094 -39.25195312 34.58789062 C-36.64535251 34.24025772 -34.03858363 33.89388399 -31.43164062 33.54882812 C-30.19220703 33.37931641 -28.95277344 33.20980469 -27.67578125 33.03515625 C-25.9728894 32.80904663 -25.9728894 32.80904663 -24.2355957 32.57836914 C-19.48021386 31.73204687 -19.48021386 31.73204687 -15 30 C-13.41184847 27.69972358 -12.28361259 25.74368093 -11.1328125 23.2421875 C-10.80836151 22.57913605 -10.48391052 21.91608459 -10.14962769 21.23294067 C-9.12219638 19.12229852 -8.12350001 16.99945787 -7.125 14.875 C-6.43154276 13.43790537 -5.73624957 12.00169511 -5.0390625 10.56640625 C-3.33793572 7.05416046 -1.66244206 3.53071028 0 0 Z " fill="#EAAF20" transform="translate(401,51)"/>
<path d="M0 0 C2.3215332 0.0925293 2.3215332 0.0925293 5 1 C6.53198242 3.80395508 6.53198242 3.80395508 7.85546875 7.51953125 C8.38069788 8.86783362 8.91345097 10.2132242 9.45288086 11.5559082 C9.73324188 12.25430817 10.01360291 12.95270813 10.30245972 13.67227173 C14.70715516 24.80792448 14.70715516 24.80792448 23.11132812 32.79296875 C29.69278967 34.84324455 36.29038147 35.14575793 43.14794922 35.02978516 C46.869144 34.99092317 50.33319352 35.38376673 54 36 C55 37 55 37 55.39453125 39.2421875 C54.83629399 43.14432122 52.57063714 44.72377684 49.6875 47.125 C48.59290571 48.09800937 47.49917726 49.07199352 46.40625 50.046875 C44.73329993 51.51070631 43.0525771 52.95674114 41.3359375 54.36914062 C34.76255859 59.59997665 34.76255859 59.59997665 31.43359375 67.01953125 C31.64231436 70.47407038 32.22907727 73.62581646 33 77 C33.40235315 79.07169067 33.78558853 81.1463722 34.16748047 83.22192383 C34.54350904 85.21199343 34.96016205 87.19425966 35.37890625 89.17578125 C36.03935819 93.24233754 36.10487706 96.89155534 36 101 C34.39404297 101.70117188 34.39404297 101.70117188 32 102 C29.07080078 100.72070312 29.07080078 100.72070312 25.6953125 98.78125 C24.45973218 98.08967085 23.22405195 97.39827016 21.98828125 96.70703125 C20.05446727 95.60585208 18.12388794 94.49935911 16.19580078 93.38818359 C14.32820661 92.31764597 12.45014976 91.26759674 10.5703125 90.21875 C9.45414551 89.57873047 8.33797852 88.93871094 7.18798828 88.27929688 C3.46361802 86.78475711 1.8104837 86.86788591 -2 88 C-4.67379845 89.15276873 -4.67379845 89.15276873 -7.2578125 90.65234375 C-8.21300781 91.18150391 -9.16820312 91.71066406 -10.15234375 92.25585938 C-11.13332031 92.81080078 -12.11429688 93.36574219 -13.125 93.9375 C-15.08571952 95.0303391 -17.04664879 96.12280198 -19.0078125 97.21484375 C-19.87035645 97.70073975 -20.73290039 98.18663574 -21.62158203 98.68725586 C-22.40645996 99.12046143 -23.19133789 99.55366699 -24 100 C-24.70108887 100.38744385 -25.40217773 100.7748877 -26.12451172 101.17407227 C-28 102 -28 102 -31 102 C-34.42673536 95.14652927 -30.15351847 83.16222197 -28.62109375 75.859375 C-27.65195455 69.93887003 -27.65195455 69.93887003 -28 64 C-30.07119173 60.93009133 -30.07119173 60.93009133 -33.06640625 58.36328125 C-33.57928696 57.87595016 -34.09216766 57.38861908 -34.62059021 56.88652039 C-36.24993236 55.34121752 -37.9028245 53.8251309 -39.5625 52.3125 C-41.22369276 50.7874351 -42.87783816 49.25706876 -44.51512146 47.7063446 C-45.99558911 46.30529928 -47.49840771 44.92798503 -49.00219727 43.55200195 C-51 41 -51 41 -50.80834961 38.17260742 C-50.54159424 37.45564697 -50.27483887 36.73868652 -50 36 C-48.52575562 35.90634155 -48.52575562 35.90634155 -47.02172852 35.81079102 C-29.50801442 35.26139126 -29.50801442 35.26139126 -13.61914062 29.3203125 C-10.37825234 25.4637716 -8.94320735 21.06606854 -7.66699219 16.25097656 C-6.57611188 12.56945518 -4.74180633 9.31061525 -2.9375 5.9375 C-1.95622643 3.95937709 -0.97619265 1.98063524 0 0 Z " fill="#EAAF20" transform="translate(106,51)"/>
<path d="M0 0 C1.32 0 2.64 0 4 0 C4.42297363 0.89831543 4.84594727 1.79663086 5.28173828 2.72216797 C6.86031707 6.06068358 8.46557351 9.38577282 10.07910156 12.70751953 C10.77294578 14.14541612 11.4595596 15.58682551 12.13867188 17.03173828 C13.11777515 19.11161703 14.1224296 21.17735839 15.1328125 23.2421875 C15.42995148 23.88807831 15.72709045 24.53396912 16.03323364 25.19943237 C17.59289497 28.32268364 18.64554882 29.82975445 21.82666016 31.35766602 C25.09586119 32.01940381 28.33393322 32.59361897 31.640625 33.03515625 C33.49300781 33.28942383 33.49300781 33.28942383 35.3828125 33.54882812 C37.29707031 33.8030957 37.29707031 33.8030957 39.25 34.0625 C41.79729637 34.40442751 44.34419654 34.74932406 46.890625 35.09765625 C48.01500977 35.24726807 49.13939453 35.39687988 50.29785156 35.55102539 C53 36 53 36 55 37 C54.59946858 41.99128063 52.46364616 43.849914 48.80078125 47.09765625 C47.74529944 48.07330849 46.69130773 49.05057479 45.63867188 50.02929688 C43.98045346 51.55163997 42.31494911 53.06035698 40.62084961 54.54272461 C33.8026804 60.20155129 33.8026804 60.20155129 30.68041992 68.07202148 C31.19687199 71.18142599 32.01248167 74.00952751 33 77 C33.32790206 78.71156973 33.62557396 80.42932486 33.88671875 82.15234375 C34.02013672 82.94833984 34.15355469 83.74433594 34.29101562 84.56445312 C34.42185547 85.34755859 34.55269531 86.13066406 34.6875 86.9375 C34.82994141 87.74767578 34.97238281 88.55785156 35.11914062 89.39257812 C35.8017178 93.53897978 36.2384373 96.88572844 35 101 C32 102 32 102 29.41210938 100.9519043 C28.39955078 100.41476807 27.38699219 99.87763184 26.34375 99.32421875 C25.23902344 98.74349609 24.13429688 98.16277344 22.99609375 97.56445312 C21.84238281 96.94505859 20.68867188 96.32566406 19.5 95.6875 C18.34628906 95.07970703 17.19257813 94.47191406 16.00390625 93.84570312 C7.58978297 89.39318865 7.58978297 89.39318865 4 87 C-0.55834631 87.31278897 -3.92315159 88.75854652 -7.9140625 90.90625 C-9.00460938 91.48503906 -10.09515625 92.06382812 -11.21875 92.66015625 C-12.3428125 93.26730469 -13.466875 93.87445313 -14.625 94.5 C-16.86515083 95.701721 -19.10725923 96.89980194 -21.3515625 98.09375 C-22.33979004 98.62677734 -23.32801758 99.15980469 -24.34619141 99.70898438 C-26.61420929 100.81232187 -28.51319375 101.62779592 -31 102 C-32 101 -32 101 -32.1875 97.171875 C-32.12364128 91.410906 -31.07793102 85.89457122 -30 80.25 C-29.62108744 78.23510685 -29.2459493 76.21949941 -28.875 74.203125 C-28.70742187 73.32301758 -28.53984375 72.44291016 -28.3671875 71.53613281 C-27.49884666 66.55376602 -27.49884666 66.55376602 -29.34179688 62.07470703 C-29.96119141 61.47513184 -30.58058594 60.87555664 -31.21875 60.2578125 C-31.90453125 59.58363281 -32.5903125 58.90945312 -33.296875 58.21484375 C-34.02390625 57.52519531 -34.7509375 56.83554688 -35.5 56.125 C-36.54414063 55.10212891 -36.54414063 55.10212891 -37.609375 54.05859375 C-42.26087492 49.53630216 -47.07792212 45.22483871 -52 41 C-51.67 39.68 -51.34 38.36 -51 37 C-46.41540124 35.30100163 -42.61604639 34.92387899 -37.71875 34.984375 C-25.23470422 35.10375898 -25.23470422 35.10375898 -14.56451416 29.57159424 C-8.68059237 22.05793445 -5.27224723 12.69370461 -2.04614258 3.80395508 C-1 1 -1 1 0 0 Z " fill="#EAAF20" transform="translate(254,51)"/>
</svg>
